<svg width="472" height="129" viewBox="0 0 472 129" fill="none" xmlns="http://www.w3.org/2000/svg">
<path fill-rule="evenodd" clip-rule="evenodd" d="M65.8353 50.9271C64.0816 51.2173 2 59.3369 2 59.3369V55.2625C2 55.2625 59.5899 49.0878 60.274 49.0149L60.3442 49.0075C62.0347 48.8274 63.781 48.6413 65.4761 48.4006C68.0829 48.0335 70.4021 47.5864 72.5682 47.0348C77.4008 45.8162 81.8593 43.8911 85.82 41.3123C89.6587 38.8338 93.4242 35.5297 97.0139 31.4906C99.722 28.4473 102.356 25.0008 105.03 21V22.64C102.776 26.0389 100.36 29.5605 98.0593 32.2614C94.442 36.5058 90.7924 40.3753 86.8695 43.0355C82.7778 45.8311 78.1557 47.9532 73.134 49.3434C70.9084 49.9661 68.5213 50.4844 65.8353 50.9271ZM397 124.725V64.1478H391.846V124.725H397ZM225.943 72.9854C225.522 72.9854 225.34 73.1969 225.34 73.5881V92.4562C225.34 92.8177 225.522 92.9982 225.943 92.9982H237.148C237.569 92.9982 237.719 92.8473 237.719 92.4562V90.617C237.719 90.2258 237.54 90.0445 237.179 90.0445H228.767V84.1074H236.038C236.487 84.1074 236.638 83.9261 236.638 83.5645V81.6958C236.638 81.334 236.428 81.1535 236.038 81.1535H228.767V75.9695H236.968C237.418 75.9695 237.569 75.789 237.569 75.4272V73.5579C237.569 73.1969 237.36 72.9854 236.999 72.9854H225.943ZM250.732 92.9984H252.865C253.286 92.9984 253.434 92.8179 253.434 92.4259V78.8327C253.434 78.4409 253.286 78.2302 252.865 78.2302H250.732C250.282 78.2302 250.16 78.4712 250.16 78.8327V88.8998C249.378 89.2918 247.395 90.2561 246.104 90.2561C244.272 90.2561 243.911 89.1105 243.911 87.3024V78.8327C243.911 78.4409 243.76 78.2302 243.37 78.2302H241.177C240.756 78.2302 240.606 78.4712 240.606 78.8327V87.6936C240.606 90.8588 240.998 93.2696 245.054 93.2696C246.886 93.2696 248.928 92.2749 250.1 91.4615L250.16 91.4917V92.4259C250.16 92.7877 250.282 92.9984 250.732 92.9984ZM260.497 92.4259C260.497 92.7877 260.348 92.9984 259.927 92.9984H257.763C257.344 92.9984 257.193 92.8179 257.193 92.4259V78.8327C257.193 78.4407 257.344 78.2302 257.763 78.2302H259.896C260.348 78.2302 260.497 78.471 260.497 78.8327V80.159L260.558 80.2194C261.46 79.375 263.593 78.3509 265.005 78.079C265.395 77.9891 265.665 78.079 265.725 78.5918L265.935 80.6114L265.937 80.6417C265.968 81.0417 265.98 81.217 265.366 81.3342C263.682 81.6658 261.549 82.2685 260.497 82.7209V92.4259ZM267.291 85.3732C267.291 88.8089 267.681 93.2393 273.719 93.2393C279.938 93.2393 280.359 88.8089 280.359 85.3732C280.359 81.8166 279.548 77.9287 273.719 77.9287C267.92 77.9287 267.291 82.5402 267.291 85.3732ZM270.625 85.5839C270.625 82.4495 271.194 80.8219 273.748 80.8219C276.484 80.8219 276.994 82.3891 276.994 85.5839C276.994 88.8089 276.453 90.3459 273.719 90.3459C271.194 90.3459 270.625 88.7787 270.625 85.5839ZM290.305 93.2694C289.313 93.2694 287.931 93.0889 286.55 92.6064L286.519 92.6366V97.9415C286.519 98.2731 286.429 98.5442 285.95 98.5442H283.815C283.336 98.5442 283.245 98.3327 283.245 97.9415V78.8327C283.245 78.4407 283.396 78.23 283.815 78.23H285.95C286.369 78.23 286.49 78.471 286.49 78.8327V79.7368L286.579 79.797C287.66 79.0434 289.583 77.9891 291.326 77.9891C295.263 77.9891 296.284 80.9724 296.284 85.5235C296.284 90.4365 295.053 93.2694 290.305 93.2694ZM290.545 81.0026C289.313 81.0026 287.421 81.8771 286.519 82.3589V89.8943C287.873 90.2855 288.954 90.4063 289.975 90.4063C292.137 90.4063 292.888 89.2916 292.888 85.4933C292.888 81.6657 292.137 81.0026 290.545 81.0026ZM305.69 90.4063C303.227 90.4063 302.146 89.5627 302.055 86.5182H310.017C311.22 86.5182 311.519 85.7644 311.49 84.6799C311.399 81.4246 310.438 77.9287 305.059 77.9287C299.2 77.9287 298.659 82.7509 298.659 85.6746C298.659 89.5929 299.501 93.2694 305.238 93.2694C306.712 93.2694 308.905 92.9682 310.077 92.5164C310.617 92.2747 310.677 92.0337 310.588 91.5815L310.407 90.5876C310.316 90.0143 310.136 90.0143 309.596 90.0748C309.398 90.0957 309.185 90.1193 308.96 90.1439L308.958 90.1443C307.888 90.2623 306.584 90.4063 305.69 90.4063ZM308.034 84.2576H302.084C302.234 81.9971 302.837 80.6408 305.059 80.6408C307.553 80.6408 308.034 82.4193 308.034 84.2576ZM323.508 91.2802C322.006 92.4259 319.994 93.2393 317.981 93.2393C314.795 93.2393 313.865 91.4915 313.865 88.96C313.834 85.4337 315.728 83.9261 319.511 83.9261H323.357V83.1429C323.357 81.334 322.697 80.7013 320.234 80.7013C319.241 80.7013 317.349 80.8521 316.148 80.9724C315.546 81.0628 315.395 81.0328 315.307 80.6112L315.036 79.4959C314.977 79.1039 315.065 78.863 315.728 78.5918C317.019 78.1394 319.392 77.9287 320.805 77.9287C326.002 77.9287 326.634 80.0681 326.634 83.4443V89.2614C326.634 90.497 326.784 90.5272 327.715 90.6472C328.164 90.6775 328.286 90.7681 328.286 91.0997V92.3655C328.286 92.6971 328.076 92.9078 327.564 92.9982C327.083 93.0889 326.603 93.1493 326.153 93.1493C324.74 93.1493 323.869 92.7271 323.57 91.3104L323.508 91.2802ZM323.328 86.2773H319.662C318.16 86.2773 317.199 86.8195 317.199 88.8089C317.199 90.1352 317.65 90.5574 319.062 90.5574C320.353 90.5574 322.187 89.8036 323.328 89.1405V86.2773ZM340.426 92.9984H342.588C343.04 92.9984 343.16 92.7877 343.16 92.4259V83.6854C343.16 80.6408 342.798 77.9589 338.742 77.9589C336.91 77.9589 334.808 78.9838 333.696 79.767C333.681 79.767 333.665 79.7596 333.65 79.7519C333.636 79.7444 333.621 79.7368 333.605 79.7368V78.8327C333.605 78.4407 333.456 78.23 333.036 78.23H330.902C330.481 78.23 330.331 78.4407 330.331 78.8327V92.4259C330.331 92.8179 330.481 92.9984 330.902 92.9984H333.036C333.456 92.9984 333.605 92.7877 333.605 92.4259V82.3591C334.418 81.9671 336.52 81.0026 337.721 81.0026C339.464 81.0026 339.885 82.1786 339.885 83.9565L339.854 92.4259C339.854 92.8179 340.036 92.9984 340.426 92.9984ZM233.405 104.505C234.878 104.505 237.311 104.716 238.903 105.379C239.384 105.591 239.564 105.831 239.475 106.313L239.205 107.549C239.114 107.911 238.963 108.062 238.423 108.001C236.95 107.821 235.148 107.609 233.585 107.609C229.5 107.609 228.897 110.925 228.897 114.843C228.897 118.791 229.65 121.896 233.585 121.896C235.328 121.896 236.801 121.715 238.423 121.504C238.992 121.443 239.114 121.595 239.234 121.987L239.475 123.131C239.595 123.613 239.444 123.885 238.963 124.096C237.49 124.729 234.878 125 233.405 125C226.704 125 225.293 120.027 225.293 114.904C225.293 109.75 226.555 104.505 233.405 104.505ZM241.639 117.104C241.639 120.54 242.031 124.97 248.07 124.97C254.288 124.97 254.709 120.54 254.709 117.104C254.709 113.547 253.899 109.659 248.07 109.659C242.271 109.659 241.639 114.271 241.639 117.104ZM244.973 117.315C244.973 114.18 245.545 112.553 248.099 112.553C250.833 112.553 251.344 114.12 251.344 117.315C251.344 120.54 250.804 122.077 248.07 122.077C245.545 122.077 244.973 120.509 244.973 117.315ZM278.626 124.729H276.463C276.043 124.729 275.892 124.549 275.892 124.157V115.596C275.892 113.366 275.351 112.733 273.849 112.733C272.737 112.733 270.934 113.608 270.004 114.09C270.004 114.209 270.008 114.366 270.014 114.556V114.559C270.022 114.847 270.035 115.209 270.035 115.627V124.157C270.035 124.518 269.913 124.729 269.463 124.729H267.27C266.88 124.729 266.758 124.549 266.758 124.157V115.446C266.758 113.608 266.278 112.733 264.776 112.733C263.725 112.733 262.042 113.487 260.901 114.09V124.157C260.901 124.518 260.75 124.729 260.329 124.729H258.167C257.775 124.729 257.625 124.549 257.625 124.157V110.563C257.625 110.171 257.775 109.961 258.167 109.961H260.301C260.75 109.961 260.901 110.202 260.901 110.563V111.437L260.93 111.467C262.102 110.654 263.754 109.75 265.407 109.69C267.15 109.69 268.592 110.051 269.523 111.799C271.025 110.684 272.888 109.69 274.811 109.69C278.776 109.69 279.168 112.282 279.168 115.295V124.157C279.168 124.518 279.047 124.729 278.626 124.729ZM301.224 124.729H303.386C303.807 124.729 303.926 124.518 303.926 124.157V115.295C303.926 112.282 303.536 109.69 299.571 109.69C297.648 109.69 295.785 110.684 294.283 111.799C293.353 110.051 291.908 109.69 290.167 109.69C288.514 109.75 286.862 110.654 285.69 111.467L285.661 111.437V110.563C285.661 110.202 285.51 109.961 285.059 109.961H282.925C282.535 109.961 282.385 110.171 282.385 110.563V124.157C282.385 124.549 282.535 124.729 282.925 124.729H285.09C285.51 124.729 285.661 124.518 285.661 124.157V114.09C286.802 113.487 288.483 112.733 289.536 112.733C291.038 112.733 291.518 113.608 291.518 115.446V124.157C291.518 124.549 291.638 124.729 292.03 124.729H294.223C294.673 124.729 294.793 124.518 294.793 124.157V115.627C294.793 115.209 294.782 114.846 294.774 114.557C294.768 114.368 294.764 114.209 294.764 114.09C295.696 113.608 297.497 112.733 298.61 112.733C300.111 112.733 300.652 113.366 300.652 115.596V124.157C300.652 124.549 300.803 124.729 301.224 124.729ZM309.278 107.791C307.716 107.791 307.506 106.916 307.506 106.042C307.506 105.078 307.836 104.324 309.278 104.324C310.751 104.324 311.05 105.018 311.05 106.042C311.05 106.977 310.78 107.791 309.278 107.791ZM310.871 124.157C310.871 124.488 310.751 124.729 310.33 124.729H308.197C307.776 124.729 307.597 124.549 307.597 124.157V110.533C307.597 110.111 307.776 109.961 308.197 109.961H310.33C310.751 109.961 310.871 110.202 310.871 110.533V124.157ZM314.867 124.307C316.01 124.759 318.022 124.97 319.524 124.97C322.619 124.97 325.594 123.825 325.594 120.299C325.594 116.712 323.011 116.139 320.155 115.717C318.323 115.416 317.601 115.265 317.601 114.09C317.601 112.945 318.053 112.401 319.976 112.401C321.088 112.401 322.769 112.583 324.061 112.733C324.601 112.793 324.783 112.733 324.872 112.312L325.113 111.227C325.204 110.774 324.991 110.533 324.482 110.322C323.219 109.84 321.145 109.659 319.914 109.659C316.551 109.659 314.267 111.227 314.267 114.21C314.267 117.495 316.85 118.129 319.794 118.55C321.688 118.821 322.198 119.123 322.198 120.509C322.198 121.715 321.418 122.227 319.495 122.227C318.474 122.227 316.551 122.077 315.228 121.866C314.748 121.805 314.537 121.836 314.446 122.318L314.236 123.312C314.147 123.795 314.267 124.066 314.867 124.307ZM333.318 124.97C331.814 124.97 329.803 124.759 328.66 124.307C328.059 124.066 327.94 123.795 328.028 123.312L328.239 122.318C328.329 121.836 328.54 121.805 329.021 121.866C330.343 122.077 332.266 122.227 333.287 122.227C335.21 122.227 335.99 121.715 335.99 120.509C335.99 119.123 335.48 118.821 333.588 118.55C330.642 118.129 328.059 117.495 328.059 114.21C328.059 111.227 330.343 109.659 333.708 109.659C334.94 109.659 337.013 109.84 338.274 110.322C338.786 110.533 338.996 110.774 338.905 111.227L338.666 112.312C338.575 112.733 338.396 112.793 337.853 112.733C336.562 112.583 334.88 112.401 333.768 112.401C331.845 112.401 331.395 112.945 331.395 114.09C331.395 115.265 332.115 115.416 333.947 115.717C336.803 116.139 339.386 116.712 339.386 120.299C339.386 123.825 336.411 124.97 333.318 124.97ZM342.514 106.042C342.514 106.916 342.722 107.791 344.286 107.791C345.788 107.791 346.058 106.977 346.058 106.042C346.058 105.018 345.757 104.324 344.286 104.324C342.844 104.324 342.514 105.078 342.514 106.042ZM345.336 124.729C345.757 124.729 345.877 124.488 345.877 124.157V110.533C345.877 110.202 345.757 109.961 345.336 109.961H343.205C342.784 109.961 342.602 110.111 342.602 110.533V124.157C342.602 124.549 342.784 124.729 343.205 124.729H345.336ZM355.735 124.97C349.696 124.97 349.304 120.54 349.304 117.104C349.304 114.271 349.935 109.659 355.735 109.659C361.563 109.659 362.374 113.547 362.374 117.104C362.374 120.54 361.953 124.97 355.735 124.97ZM355.763 112.553C353.209 112.553 352.638 114.18 352.638 117.315C352.638 120.509 353.209 122.077 355.735 122.077C358.468 122.077 359.009 120.54 359.009 117.315C359.009 114.12 358.497 112.553 355.763 112.553ZM375.295 124.729H377.458C377.909 124.729 378.029 124.518 378.029 124.157V115.416C378.029 112.371 377.668 109.69 373.612 109.69C371.78 109.69 369.675 110.714 368.565 111.498C368.561 111.498 368.557 111.497 368.553 111.496C368.549 111.496 368.547 111.495 368.543 111.493C368.534 111.49 368.528 111.486 368.52 111.483C368.512 111.478 368.501 111.474 368.493 111.471C368.487 111.469 368.481 111.467 368.475 111.467V110.563C368.475 110.171 368.324 109.961 367.903 109.961H365.772C365.351 109.961 365.2 110.171 365.2 110.563V124.157C365.2 124.549 365.351 124.729 365.772 124.729H367.903C368.324 124.729 368.475 124.518 368.475 124.157V114.09C369.285 113.698 371.39 112.733 372.591 112.733C374.334 112.733 374.755 113.909 374.755 115.687L374.724 124.157C374.724 124.549 374.903 124.729 375.295 124.729ZM85.2545 48.8146C81.3685 51.0741 76.8801 52.7267 71.9152 53.7285C69.7945 54.161 67.4836 54.5127 64.8474 54.8033C63.3001 54.973 61.7401 55.1096 60.1787 55.2456L60.0031 55.2609C59.2191 55.3296 58.4349 55.3985 57.6536 55.4714C38.6285 57.1958 19.7014 59.0298 2 60.7671V64.8378C19.8407 62.6625 38.8996 60.3596 57.9181 58.1839C58.7636 58.0835 59.6099 57.9889 60.4566 57.8958L60.5492 57.8855C62.0764 57.7149 63.6056 57.5442 65.1394 57.3399C67.8456 56.9758 70.2137 56.5575 72.3776 56.0612C77.5359 54.8954 82.196 53.0548 86.2221 50.5906C90.224 48.1626 93.7609 44.7631 97.5633 40.6059C99.9306 38.0184 102.565 34.367 105.03 30.9356V29.4428C102.126 33.4242 99.3711 36.7689 96.644 39.6219C92.9315 43.5093 89.1 46.601 85.2545 48.8146ZM84.3628 56.0283C88.3765 54.0913 92.3311 51.3293 96.1191 47.8172C99.0397 45.1129 101.965 41.9042 105.03 38.0545V39.4078L104.505 40.0767C102.048 43.2141 99.7237 46.1813 97.3153 48.5136C93.4739 52.2379 89.3414 55.7553 85.2062 57.8693C81.1609 59.9626 76.6201 61.4721 71.3268 62.4814C69.1966 62.8912 66.8561 63.2429 64.1738 63.5558L58.5859 64.1498H79.909C81.3202 63.7829 82.6887 63.3476 84.0254 62.8105C88.8155 60.8863 91.8387 58.6281 95.7525 55.4505C98.7709 53.0047 101.608 50.1479 105.03 46.5718V48.0252C102.201 51.1778 99.6011 54.065 96.898 56.3586C93.2944 59.4237 89.4423 62.2463 85.6046 64.1498H93.4071C94.3972 63.6889 95.3266 63.1907 96.147 62.6443C99.7876 60.2193 101.703 58.377 105.03 55.0967V56.5319C105.024 56.5975 100.446 61.3671 96.8367 64.1498H135.089V124.725H105.03L2 124.725V120.686L44.824 121.783V118.851C30.3426 118.998 15.8294 119.102 2 119.196V115.153C16.4426 115.426 30.6486 115.69 44.824 115.91V112.704C38.6417 112.836 32.5444 112.984 26.7364 113.128L2 113.783V109.743L26.6776 109.72C32.519 109.725 38.6244 109.734 44.824 109.761V106.834C30.2386 107.289 15.7705 107.779 2 108.252V104.21C16.4123 104.084 30.5986 103.965 44.824 103.884V100.989L2 102.855V98.8139L44.824 98.0338V95.069L2 97.328V93.2826L44.824 92.1103V89.1751C30.5974 90.1006 16.4091 91.0728 2 92.0662V88.0169C16.4998 87.3808 30.7496 86.7618 44.824 86.1984V83.2485C30.6597 84.297 16.4454 85.4028 2 86.5333V82.4814C17.0811 81.6749 31.0436 80.9358 44.824 80.259V77.2362C38.9937 77.7447 33.3088 78.2576 28.1371 78.7266L2 81.1508V77.0892L27.879 75.3277C33.5692 74.9527 39.1913 74.5845 44.824 74.232V71.3938L2 75.5916V71.536L44.824 68.3811V65.6245L2 70.218V66.1556L63.9306 61.0149C66.5353 60.7756 68.8283 60.4867 70.9373 60.1338C76.0484 59.284 80.4392 57.9413 84.3628 56.0283ZM79.9965 73.0003L80.7794 75.4823H83.9198L81.3885 77.3885L82.3722 80.4088L79.8506 78.5455L77.3288 80.4088L78.323 77.3885L75.7713 75.4823H78.9022L79.6715 73.0937C79.7803 73.0628 79.8886 73.0316 79.9965 73.0003ZM148.876 21C148.876 21 167.419 50.6262 170.809 56.0581C174.199 61.489 178.074 65.7857 191.793 68.7046C205.512 71.6229 211.484 73.0013 211.484 73.0013V74.0554C211.484 74.0554 202.767 72.1904 191.55 69.6772L190.589 69.4622C180.066 67.1097 175.599 66.1111 170.634 59.1817C166.38 53.241 148.876 27.998 148.876 27.998V21ZM170.634 77.6704C165.755 72.5766 148.876 54.8331 148.876 54.8331V60.052C148.876 60.052 165.827 75.9979 170.58 80.3902C175.612 85.0416 181.705 86.0806 190.223 87.5334C190.687 87.6126 191.158 87.6929 191.637 87.7753C201.087 89.3978 211.48 91.1059 211.48 91.1059V90.1066C211.48 90.1066 200.412 88.2915 191.637 86.7202C182.444 85.0727 175.812 83.0742 170.634 77.6704ZM148.876 62.8277C148.876 62.8277 164.929 77.7809 170.634 82.8889C175.886 87.5901 180.142 89.0519 191.693 91.1059C203.245 93.1603 211.48 94.4371 211.48 94.4371V95.4922C211.48 95.4922 201.033 93.7708 191.637 92.2711C190.84 92.144 190.068 92.0236 189.319 91.9067C181.23 90.6439 175.778 89.7929 170.634 85.6098C164.148 80.3318 148.876 67.7137 148.876 67.7137V62.8277ZM170.64 88.4966C167.213 85.9426 148.876 71.3501 148.876 71.3501V75.8495C148.876 75.8495 163.789 86.3822 170.695 90.9943C177.245 95.3699 182.913 96.0676 189.964 96.9354C190.55 97.0074 191.146 97.0809 191.753 97.1575C199.657 98.157 211.484 99.8781 211.484 99.8781V98.7673C211.484 98.7673 204.797 97.8268 191.753 95.9366C178.599 94.0293 174.066 91.05 170.64 88.4966ZM148.876 79.5431C148.876 79.5431 167.268 91.8278 170.75 93.7708C171.138 93.9871 171.534 94.2189 171.949 94.4621C175.26 96.401 179.819 99.0707 191.753 100.6C205.184 102.322 211.484 103.098 211.484 103.098V104.153C211.484 104.153 200.375 102.932 191.697 101.988C183.02 101.043 177.107 99.7668 170.64 96.2141C164.173 92.6613 148.876 83.6953 148.876 83.6953V79.5431ZM170.634 99.3777C165.133 96.6074 148.876 87.736 148.876 87.736V91.6248C148.876 91.6248 164.092 98.7425 170.634 101.655C177.95 104.912 181.559 105.355 191.693 106.319C201.915 107.29 211.48 108.318 211.48 108.318V107.318C211.48 107.318 201.135 106.224 191.693 105.096C182.077 103.948 176.77 102.469 170.634 99.3777ZM148.876 96.0405C148.876 96.0405 161.723 101.559 170.75 105.152C178.471 108.225 184.604 108.851 189.621 109.363C190.375 109.44 191.104 109.514 191.808 109.594C194.185 109.862 211.484 111.649 211.484 111.649V112.646C211.484 112.646 201.149 111.814 191.753 110.982L191.669 110.975C182.332 110.148 178.282 109.79 170.695 107.262C162.996 104.698 148.876 99.7589 148.876 99.7589V96.0405ZM170.69 110.871C161.847 108.539 148.876 104.506 148.876 104.506V108.001C148.876 108.001 164.897 111.821 170.634 113.091C175.812 114.239 182.886 114.905 191.693 115.534C202.585 116.314 211.484 116.923 211.484 116.923V115.977C211.484 115.977 195.838 114.702 191.748 114.423C187.658 114.148 179.534 113.203 170.69 110.871ZM148.876 112.835C148.876 112.835 159.484 114.67 170.69 116.534C179.091 117.931 190.477 118.811 191.693 118.867C192.91 118.921 211.48 120.199 211.48 120.199V121.197C211.48 121.197 199.594 120.581 191.693 120.144C183.462 119.686 175.282 119.186 170.634 118.7C160.226 117.61 148.876 116.17 148.876 116.17V112.835ZM170.69 122.198C165.606 122.086 148.876 121.456 148.876 121.456V124.725H211.48V123.752C211.48 123.752 175.775 122.308 170.69 122.198ZM191.693 73.2843C177.257 70.1617 173.469 64.9709 170.943 61.5105C170.819 61.3408 170.699 61.1753 170.58 61.0142C168.037 57.5713 148.876 29.4785 148.876 29.4785V35.8185L148.995 35.975C150.666 38.1689 166.178 58.5364 170.634 64.2895C175.625 70.7311 183.339 72.3831 190.806 73.9824C191.102 74.0457 191.398 74.1091 191.693 74.1724C199.43 75.8381 211.484 78.1601 211.484 78.1601V77.272C211.484 77.272 195.603 74.13 191.693 73.2843ZM170.58 66.5658C174.228 71.3408 179.257 75.2828 191.693 77.7257C198.863 79.1345 211.48 81.5012 211.48 81.5012V82.3889C211.48 82.3889 200.426 80.2795 191.693 78.6692C182.96 77.0596 175.748 75.5024 170.58 69.5638C166.211 64.5447 150.095 45.3702 148.917 43.9694L148.876 43.9203V37.9173C148.876 37.9173 166.932 61.7912 170.58 66.5658ZM191.693 82.3334C178.761 79.8173 176.108 77.7443 170.634 71.7289C167.216 67.9734 149.852 47.4065 148.893 46.2711L148.876 46.2508V51.7974C148.876 51.7974 165.301 69.3713 170.58 74.5609C176.837 80.7122 182.747 81.7303 189.493 82.8923C190.216 83.0169 190.949 83.1431 191.693 83.2774C199.376 84.6652 211.48 86.8866 211.48 86.8866V85.9426C211.48 85.9426 196.866 83.3406 191.693 82.3334ZM94.0762 72.7629H90.9352L90.0066 69.702L89.0579 72.7629H85.9277L88.4792 74.7409L87.4854 77.8792L90.0066 75.9459L92.5284 77.8792L91.5444 74.7409L94.0762 72.7629ZM94.1909 113.159H91.0456L90.1217 110.214L89.173 113.159H86.0374L88.5935 115.066L87.6001 118.083L90.1217 116.224L92.6429 118.083L91.6596 115.066L94.1909 113.159ZM101.007 110.484H104.153L101.621 112.386L102.605 115.408L100.083 113.544L97.5617 115.408L98.5551 112.386L95.9988 110.484H99.1344L100.083 107.538L101.007 110.484ZM104.153 75.4575H101.007L100.083 72.5125L99.1344 75.4575H95.9988L98.5551 77.361L97.5617 80.3813L100.083 78.5206L102.605 80.3813L101.621 77.361L104.153 75.4575ZM108.402 82.8757H111.542L109.011 84.7767L109.995 87.7995L107.473 85.9387L104.956 87.7995L105.95 84.7767L103.393 82.8757H106.524L107.473 79.9303L108.402 82.8757ZM111.542 103.166H108.402L107.473 100.221L106.524 103.166H103.393L105.95 105.075L104.956 108.094L107.473 106.231L109.995 108.094L109.011 105.075L111.542 103.166ZM111.173 92.866H114.319L111.787 94.7699L112.77 97.7912L110.249 95.9273L107.727 97.7912L108.721 94.7699L106.164 92.866H109.296L110.249 89.9233L111.173 92.866ZM73.5895 82.9005H76.7352L74.2035 84.8038L75.1823 87.8248L72.6656 85.9635L70.1442 87.8248L71.1354 84.8038L68.5814 82.9005H71.717L72.6656 79.9556L73.5895 82.9005ZM74.064 92.8908H70.9206L69.9942 89.9485L69.0456 92.8908H65.9147L68.4664 94.7964L67.4726 97.8161L69.9942 95.9585L72.5156 97.8161L71.5323 94.7964L74.064 92.8908ZM73.5895 103.191H76.7352L74.2035 105.1L75.1823 108.119L72.6656 106.257L70.1442 108.119L71.1354 105.1L68.5814 103.191H71.717L72.6656 100.25L73.5895 103.191ZM84.025 110.508H80.8847L79.9552 107.563L79.007 110.508H75.8763L78.4278 112.412L77.434 115.432L79.9552 113.57L82.4721 115.432L81.4931 112.412L84.025 110.508Z" fill="white"/>
</svg>
