<svg width="395" height="104" viewBox="0 0 395 104" fill="none" xmlns="http://www.w3.org/2000/svg">
<g clip-path="url(#clip0_3_2)">
<path fill-rule="evenodd" clip-rule="evenodd" d="M63.8353 29.9271C62.0816 30.2173 0 38.3369 0 38.3369V34.2625C0 34.2625 57.5899 28.0878 58.274 28.0149L58.3442 28.0075C60.0347 27.8274 61.781 27.6413 63.4761 27.4006C66.0829 27.0335 68.4021 26.5864 70.5682 26.0348C75.4008 24.8162 79.8593 22.8911 83.82 20.3123C87.6587 17.8338 91.4242 14.5297 95.0139 10.4906C97.722 7.4473 100.356 4.0008 103.03 0V1.64C100.776 5.0389 98.36 8.5605 96.0593 11.2614C92.442 15.5058 88.7924 19.3753 84.8695 22.0355C80.7778 24.8311 76.1557 26.9532 71.134 28.3434C68.9084 28.9661 66.5213 29.4844 63.8353 29.9271ZM395 103.725V43.1478H389.846V103.725H395ZM223.943 51.9854C223.522 51.9854 223.34 52.1969 223.34 52.5881V71.4562C223.34 71.8177 223.522 71.9982 223.943 71.9982H235.148C235.569 71.9982 235.719 71.8473 235.719 71.4562V69.617C235.719 69.2258 235.54 69.0445 235.179 69.0445H226.767V63.1074H234.038C234.487 63.1074 234.638 62.9261 234.638 62.5645V60.6958C234.638 60.334 234.428 60.1535 234.038 60.1535H226.767V54.9695H234.968C235.418 54.9695 235.569 54.789 235.569 54.4272V52.5579C235.569 52.1969 235.36 51.9854 234.999 51.9854H223.943ZM248.732 71.9984H250.865C251.286 71.9984 251.434 71.8179 251.434 71.4259V57.8327C251.434 57.4409 251.286 57.2302 250.865 57.2302H248.732C248.282 57.2302 248.16 57.4712 248.16 57.8327V67.8998C247.378 68.2918 245.395 69.2561 244.104 69.2561C242.272 69.2561 241.911 68.1105 241.911 66.3024V57.8327C241.911 57.4409 241.76 57.2302 241.37 57.2302H239.177C238.756 57.2302 238.606 57.4712 238.606 57.8327V66.6936C238.606 69.8588 238.998 72.2696 243.054 72.2696C244.886 72.2696 246.928 71.2749 248.1 70.4615L248.16 70.4917V71.4259C248.16 71.7877 248.282 71.9984 248.732 71.9984ZM258.497 71.4259C258.497 71.7877 258.348 71.9984 257.927 71.9984H255.763C255.344 71.9984 255.193 71.8179 255.193 71.4259V57.8327C255.193 57.4407 255.344 57.2302 255.763 57.2302H257.896C258.348 57.2302 258.497 57.471 258.497 57.8327V59.159L258.558 59.2194C259.46 58.375 261.593 57.3509 263.005 57.079C263.395 56.9891 263.665 57.079 263.725 57.5918L263.935 59.6114L263.937 59.6417C263.968 60.0417 263.98 60.217 263.366 60.3342C261.682 60.6658 259.549 61.2685 258.497 61.7209V71.4259ZM265.291 64.3732C265.291 67.8089 265.681 72.2393 271.719 72.2393C277.938 72.2393 278.359 67.8089 278.359 64.3732C278.359 60.8166 277.548 56.9287 271.719 56.9287C265.92 56.9287 265.291 61.5402 265.291 64.3732ZM268.625 64.5839C268.625 61.4495 269.194 59.8219 271.748 59.8219C274.484 59.8219 274.994 61.3891 274.994 64.5839C274.994 67.8089 274.453 69.3459 271.719 69.3459C269.194 69.3459 268.625 67.7787 268.625 64.5839ZM288.305 72.2694C287.313 72.2694 285.931 72.0889 284.55 71.6064L284.519 71.6366V76.9415C284.519 77.2731 284.429 77.5442 283.95 77.5442H281.815C281.336 77.5442 281.245 77.3327 281.245 76.9415V57.8327C281.245 57.4407 281.396 57.23 281.815 57.23H283.95C284.369 57.23 284.49 57.471 284.49 57.8327V58.7368L284.579 58.797C285.66 58.0434 287.583 56.9891 289.326 56.9891C293.263 56.9891 294.284 59.9724 294.284 64.5235C294.284 69.4365 293.053 72.2694 288.305 72.2694ZM288.545 60.0026C287.313 60.0026 285.421 60.8771 284.519 61.3589V68.8943C285.873 69.2855 286.954 69.4063 287.975 69.4063C290.137 69.4063 290.888 68.2916 290.888 64.4933C290.888 60.6657 290.137 60.0026 288.545 60.0026ZM303.69 69.4063C301.227 69.4063 300.146 68.5627 300.055 65.5182H308.017C309.22 65.5182 309.519 64.7644 309.49 63.6799C309.399 60.4246 308.438 56.9287 303.059 56.9287C297.2 56.9287 296.659 61.7509 296.659 64.6746C296.659 68.5929 297.501 72.2694 303.238 72.2694C304.712 72.2694 306.905 71.9682 308.077 71.5164C308.617 71.2747 308.677 71.0337 308.588 70.5815L308.407 69.5876C308.316 69.0143 308.136 69.0143 307.596 69.0748C307.398 69.0957 307.185 69.1193 306.96 69.1439L306.958 69.1443C305.888 69.2623 304.584 69.4063 303.69 69.4063ZM306.034 63.2576H300.084C300.234 60.9971 300.837 59.6408 303.059 59.6408C305.553 59.6408 306.034 61.4193 306.034 63.2576ZM321.508 70.2802C320.006 71.4259 317.994 72.2393 315.981 72.2393C312.795 72.2393 311.865 70.4915 311.865 67.96C311.834 64.4337 313.728 62.9261 317.511 62.9261H321.357V62.1429C321.357 60.334 320.697 59.7013 318.234 59.7013C317.241 59.7013 315.349 59.8521 314.148 59.9724C313.546 60.0628 313.395 60.0328 313.307 59.6112L313.036 58.4959C312.977 58.1039 313.065 57.863 313.728 57.5918C315.019 57.1394 317.392 56.9287 318.805 56.9287C324.002 56.9287 324.634 59.0681 324.634 62.4443V68.2614C324.634 69.497 324.784 69.5272 325.715 69.6472C326.164 69.6775 326.286 69.7681 326.286 70.0997V71.3655C326.286 71.6971 326.076 71.9078 325.564 71.9982C325.083 72.0889 324.603 72.1493 324.153 72.1493C322.74 72.1493 321.869 71.7271 321.57 70.3104L321.508 70.2802ZM321.328 65.2773H317.662C316.16 65.2773 315.199 65.8195 315.199 67.8089C315.199 69.1352 315.65 69.5574 317.062 69.5574C318.353 69.5574 320.187 68.8036 321.328 68.1405V65.2773ZM338.426 71.9984H340.588C341.04 71.9984 341.16 71.7877 341.16 71.4259V62.6854C341.16 59.6408 340.798 56.9589 336.742 56.9589C334.91 56.9589 332.808 57.9838 331.696 58.767C331.681 58.767 331.665 58.7596 331.65 58.7519C331.636 58.7444 331.621 58.7368 331.605 58.7368V57.8327C331.605 57.4407 331.456 57.23 331.036 57.23H328.902C328.481 57.23 328.331 57.4407 328.331 57.8327V71.4259C328.331 71.8179 328.481 71.9984 328.902 71.9984H331.036C331.456 71.9984 331.605 71.7877 331.605 71.4259V61.3591C332.418 60.9671 334.52 60.0026 335.721 60.0026C337.464 60.0026 337.885 61.1786 337.885 62.9565L337.854 71.4259C337.854 71.8179 338.036 71.9984 338.426 71.9984ZM231.405 83.505C232.878 83.505 235.311 83.716 236.903 84.379C237.384 84.591 237.564 84.831 237.475 85.313L237.205 86.549C237.114 86.911 236.963 87.062 236.423 87.001C234.95 86.821 233.148 86.609 231.585 86.609C227.5 86.609 226.897 89.925 226.897 93.843C226.897 97.791 227.65 100.896 231.585 100.896C233.328 100.896 234.801 100.715 236.423 100.504C236.992 100.443 237.114 100.595 237.234 100.987L237.475 102.131C237.595 102.613 237.444 102.885 236.963 103.096C235.49 103.729 232.878 104 231.405 104C224.704 104 223.293 99.027 223.293 93.904C223.293 88.75 224.555 83.505 231.405 83.505ZM239.639 96.104C239.639 99.54 240.031 103.97 246.07 103.97C252.288 103.97 252.709 99.54 252.709 96.104C252.709 92.547 251.899 88.659 246.07 88.659C240.271 88.659 239.639 93.271 239.639 96.104ZM242.973 96.315C242.973 93.18 243.545 91.553 246.099 91.553C248.833 91.553 249.344 93.12 249.344 96.315C249.344 99.54 248.804 101.077 246.07 101.077C243.545 101.077 242.973 99.509 242.973 96.315ZM276.626 103.729H274.463C274.043 103.729 273.892 103.549 273.892 103.157V94.596C273.892 92.366 273.351 91.733 271.849 91.733C270.737 91.733 268.934 92.608 268.004 93.09C268.004 93.209 268.008 93.366 268.014 93.556V93.559C268.022 93.847 268.035 94.209 268.035 94.627V103.157C268.035 103.518 267.913 103.729 267.463 103.729H265.27C264.88 103.729 264.758 103.549 264.758 103.157V94.446C264.758 92.608 264.278 91.733 262.776 91.733C261.725 91.733 260.042 92.487 258.901 93.09V103.157C258.901 103.518 258.75 103.729 258.329 103.729H256.167C255.775 103.729 255.625 103.549 255.625 103.157V89.563C255.625 89.171 255.775 88.961 256.167 88.961H258.301C258.75 88.961 258.901 89.202 258.901 89.563V90.437L258.93 90.467C260.102 89.654 261.754 88.75 263.407 88.69C265.15 88.69 266.592 89.051 267.523 90.799C269.025 89.684 270.888 88.69 272.811 88.69C276.776 88.69 277.168 91.282 277.168 94.295V103.157C277.168 103.518 277.047 103.729 276.626 103.729ZM299.224 103.729H301.386C301.807 103.729 301.926 103.518 301.926 103.157V94.295C301.926 91.282 301.536 88.69 297.571 88.69C295.648 88.69 293.785 89.684 292.283 90.799C291.353 89.051 289.908 88.69 288.167 88.69C286.514 88.75 284.862 89.654 283.69 90.467L283.661 90.437V89.563C283.661 89.202 283.51 88.961 283.059 88.961H280.925C280.535 88.961 280.385 89.171 280.385 89.563V103.157C280.385 103.549 280.535 103.729 280.925 103.729H283.09C283.51 103.729 283.661 103.518 283.661 103.157V93.09C284.802 92.487 286.483 91.733 287.536 91.733C289.038 91.733 289.518 92.608 289.518 94.446V103.157C289.518 103.549 289.638 103.729 290.03 103.729H292.223C292.673 103.729 292.793 103.518 292.793 103.157V94.627C292.793 94.209 292.782 93.846 292.774 93.557C292.768 93.368 292.764 93.209 292.764 93.09C293.696 92.608 295.497 91.733 296.61 91.733C298.111 91.733 298.652 92.366 298.652 94.596V103.157C298.652 103.549 298.803 103.729 299.224 103.729ZM307.278 86.791C305.716 86.791 305.506 85.916 305.506 85.042C305.506 84.078 305.836 83.324 307.278 83.324C308.751 83.324 309.05 84.018 309.05 85.042C309.05 85.977 308.78 86.791 307.278 86.791ZM308.871 103.157C308.871 103.488 308.751 103.729 308.33 103.729H306.197C305.776 103.729 305.597 103.549 305.597 103.157V89.533C305.597 89.111 305.776 88.961 306.197 88.961H308.33C308.751 88.961 308.871 89.202 308.871 89.533V103.157ZM312.867 103.307C314.01 103.759 316.022 103.97 317.524 103.97C320.619 103.97 323.594 102.825 323.594 99.299C323.594 95.712 321.011 95.139 318.155 94.717C316.323 94.416 315.601 94.265 315.601 93.09C315.601 91.945 316.053 91.401 317.976 91.401C319.088 91.401 320.769 91.583 322.061 91.733C322.601 91.793 322.783 91.733 322.872 91.312L323.113 90.227C323.204 89.774 322.991 89.533 322.482 89.322C321.219 88.84 319.145 88.659 317.914 88.659C314.551 88.659 312.267 90.227 312.267 93.21C312.267 96.495 314.85 97.129 317.794 97.55C319.688 97.821 320.198 98.123 320.198 99.509C320.198 100.715 319.418 101.227 317.495 101.227C316.474 101.227 314.551 101.077 313.228 100.866C312.748 100.805 312.537 100.836 312.446 101.318L312.236 102.312C312.147 102.795 312.267 103.066 312.867 103.307ZM331.318 103.97C329.814 103.97 327.803 103.759 326.66 103.307C326.059 103.066 325.94 102.795 326.028 102.312L326.239 101.318C326.329 100.836 326.54 100.805 327.021 100.866C328.343 101.077 330.266 101.227 331.287 101.227C333.21 101.227 333.99 100.715 333.99 99.509C333.99 98.123 333.48 97.821 331.588 97.55C328.642 97.129 326.059 96.495 326.059 93.21C326.059 90.227 328.343 88.659 331.708 88.659C332.94 88.659 335.013 88.84 336.274 89.322C336.786 89.533 336.996 89.774 336.905 90.227L336.666 91.312C336.575 91.733 336.396 91.793 335.853 91.733C334.562 91.583 332.88 91.401 331.768 91.401C329.845 91.401 329.395 91.945 329.395 93.09C329.395 94.265 330.115 94.416 331.947 94.717C334.803 95.139 337.386 95.712 337.386 99.299C337.386 102.825 334.411 103.97 331.318 103.97ZM340.514 85.042C340.514 85.916 340.722 86.791 342.286 86.791C343.788 86.791 344.058 85.977 344.058 85.042C344.058 84.018 343.757 83.324 342.286 83.324C340.844 83.324 340.514 84.078 340.514 85.042ZM343.336 103.729C343.757 103.729 343.877 103.488 343.877 103.157V89.533C343.877 89.202 343.757 88.961 343.336 88.961H341.205C340.784 88.961 340.602 89.111 340.602 89.533V103.157C340.602 103.549 340.784 103.729 341.205 103.729H343.336ZM353.735 103.97C347.696 103.97 347.304 99.54 347.304 96.104C347.304 93.271 347.935 88.659 353.735 88.659C359.563 88.659 360.374 92.547 360.374 96.104C360.374 99.54 359.953 103.97 353.735 103.97ZM353.763 91.553C351.209 91.553 350.638 93.18 350.638 96.315C350.638 99.509 351.209 101.077 353.735 101.077C356.468 101.077 357.009 99.54 357.009 96.315C357.009 93.12 356.497 91.553 353.763 91.553ZM373.295 103.729H375.458C375.909 103.729 376.029 103.518 376.029 103.157V94.416C376.029 91.371 375.668 88.69 371.612 88.69C369.78 88.69 367.675 89.714 366.565 90.498C366.561 90.498 366.557 90.497 366.553 90.496C366.549 90.496 366.547 90.495 366.543 90.493C366.534 90.49 366.528 90.486 366.52 90.483C366.512 90.478 366.501 90.474 366.493 90.471C366.487 90.469 366.481 90.467 366.475 90.467V89.563C366.475 89.171 366.324 88.961 365.903 88.961H363.772C363.351 88.961 363.2 89.171 363.2 89.563V103.157C363.2 103.549 363.351 103.729 363.772 103.729H365.903C366.324 103.729 366.475 103.518 366.475 103.157V93.09C367.285 92.698 369.39 91.733 370.591 91.733C372.334 91.733 372.755 92.909 372.755 94.687L372.724 103.157C372.724 103.549 372.903 103.729 373.295 103.729ZM83.2545 27.8146C79.3685 30.0741 74.8801 31.7267 69.9152 32.7285C67.7945 33.161 65.4836 33.5127 62.8474 33.8033C61.3001 33.973 59.7401 34.1096 58.1787 34.2456L58.0031 34.2609C57.2191 34.3296 56.4349 34.3985 55.6536 34.4714C36.6285 36.1958 17.7014 38.0298 0 39.7671V43.8378C17.8407 41.6625 36.8996 39.3596 55.9181 37.1839C56.7636 37.0835 57.6099 36.9889 58.4566 36.8958L58.5492 36.8855C60.0764 36.7149 61.6056 36.5442 63.1394 36.3399C65.8456 35.9758 68.2137 35.5575 70.3776 35.0612C75.5359 33.8954 80.196 32.0548 84.2221 29.5906C88.224 27.1626 91.7609 23.7631 95.5633 19.6059C97.9306 17.0184 100.565 13.367 103.03 9.9356V8.4428C100.126 12.4242 97.3711 15.7689 94.644 18.6219C90.9315 22.5093 87.1 25.601 83.2545 27.8146ZM82.3628 35.0283C86.3765 33.0913 90.3311 30.3293 94.1191 26.8172C97.0397 24.1129 99.965 20.9042 103.03 17.0545V18.4078L102.505 19.0767C100.048 22.2141 97.7237 25.1813 95.3153 27.5136C91.4739 31.2379 87.3414 34.7553 83.2062 36.8693C79.1609 38.9626 74.6201 40.4721 69.3268 41.4814C67.1966 41.8912 64.8561 42.2429 62.1738 42.5558L56.5859 43.1498H77.909C79.3202 42.7829 80.6887 42.3476 82.0254 41.8105C86.8155 39.8863 89.8387 37.6281 93.7525 34.4505C96.7709 32.0047 99.608 29.1479 103.03 25.5718V27.0252C100.201 30.1778 97.6011 33.065 94.898 35.3586C91.2944 38.4237 87.4423 41.2463 83.6046 43.1498H91.4071C92.3972 42.6889 93.3266 42.1907 94.147 41.6443C97.7876 39.2193 99.703 37.377 103.03 34.0967V35.5319C103.024 35.5975 98.446 40.3671 94.8367 43.1498H133.089V103.725H103.03H0V99.686L42.824 100.783V97.851C28.3426 97.998 13.8294 98.102 0 98.196V94.153C14.4426 94.426 28.6486 94.69 42.824 94.91V91.704C36.6417 91.836 30.5444 91.984 24.7364 92.128L0 92.783V88.743L24.6776 88.72C30.519 88.725 36.6244 88.734 42.824 88.761V85.834C28.2386 86.289 13.7705 86.779 0 87.252V83.21C14.4123 83.084 28.5986 82.965 42.824 82.884V79.989L0 81.855V77.8139L42.824 77.0338V74.069L0 76.328V72.2826L42.824 71.1103V68.1751C28.5974 69.1006 14.4091 70.0728 0 71.0662V67.0169C14.4998 66.3808 28.7496 65.7618 42.824 65.1984V62.2485C28.6597 63.297 14.4454 64.4028 0 65.5333V61.4814C15.0811 60.6749 29.0436 59.9358 42.824 59.259V56.2362C36.9937 56.7447 31.3088 57.2576 26.1371 57.7266L0 60.1508V56.0892L25.879 54.3277C31.5692 53.9527 37.1913 53.5845 42.824 53.232V50.3938L0 54.5916V50.536L42.824 47.3811V44.6245L0 49.218V45.1556L61.9306 40.0149C64.5353 39.7756 66.8283 39.4867 68.9373 39.1338C74.0484 38.284 78.4392 36.9413 82.3628 35.0283ZM77.9965 52.0003L78.7794 54.4823H81.9198L79.3885 56.3885L80.3722 59.4088L77.8506 57.5455L75.3288 59.4088L76.323 56.3885L73.7713 54.4823H76.9022L77.6715 52.0937C77.7803 52.0628 77.8886 52.0316 77.9965 52.0003ZM146.876 0C146.876 0 165.419 29.6262 168.809 35.0581C172.199 40.489 176.074 44.7857 189.793 47.7046C203.512 50.6229 209.484 52.0013 209.484 52.0013V53.0554C209.484 53.0554 200.767 51.1904 189.55 48.6772L188.589 48.4622C178.066 46.1097 173.599 45.1111 168.634 38.1817C164.38 32.241 146.876 6.998 146.876 6.998V0ZM168.634 56.6704C163.755 51.5766 146.876 33.8331 146.876 33.8331V39.052C146.876 39.052 163.827 54.9979 168.58 59.3902C173.612 64.0416 179.705 65.0806 188.223 66.5334C188.687 66.6126 189.158 66.6929 189.637 66.7753C199.087 68.3978 209.48 70.1059 209.48 70.1059V69.1066C209.48 69.1066 198.412 67.2915 189.637 65.7202C180.444 64.0727 173.812 62.0742 168.634 56.6704ZM146.876 41.8277C146.876 41.8277 162.929 56.7809 168.634 61.8889C173.886 66.5901 178.142 68.0519 189.693 70.1059C201.245 72.1603 209.48 73.4371 209.48 73.4371V74.4922C209.48 74.4922 199.033 72.7708 189.637 71.2711C188.84 71.144 188.068 71.0236 187.319 70.9067C179.23 69.6439 173.778 68.7929 168.634 64.6098C162.148 59.3318 146.876 46.7137 146.876 46.7137V41.8277ZM168.64 67.4966C165.213 64.9426 146.876 50.3501 146.876 50.3501V54.8495C146.876 54.8495 161.789 65.3822 168.695 69.9943C175.245 74.3699 180.913 75.0676 187.964 75.9354C188.55 76.0074 189.146 76.0809 189.753 76.1575C197.657 77.157 209.484 78.8781 209.484 78.8781V77.7673C209.484 77.7673 202.797 76.8268 189.753 74.9366C176.599 73.0293 172.066 70.05 168.64 67.4966ZM146.876 58.5431C146.876 58.5431 165.268 70.8278 168.75 72.7708C169.138 72.9871 169.534 73.2189 169.949 73.4621C173.26 75.401 177.819 78.0707 189.753 79.6C203.184 81.322 209.484 82.098 209.484 82.098V83.153C209.484 83.153 198.375 81.932 189.697 80.988C181.02 80.043 175.107 78.7668 168.64 75.2141C162.173 71.6613 146.876 62.6953 146.876 62.6953V58.5431ZM168.634 78.3777C163.133 75.6074 146.876 66.736 146.876 66.736V70.6248C146.876 70.6248 162.092 77.7425 168.634 80.655C175.95 83.912 179.559 84.355 189.693 85.319C199.915 86.29 209.48 87.318 209.48 87.318V86.318C209.48 86.318 199.135 85.224 189.693 84.096C180.077 82.948 174.77 81.469 168.634 78.3777ZM146.876 75.0405C146.876 75.0405 159.723 80.559 168.75 84.152C176.471 87.225 182.604 87.851 187.621 88.363C188.375 88.44 189.104 88.514 189.808 88.594C192.185 88.862 209.484 90.649 209.484 90.649V91.646C209.484 91.646 199.149 90.814 189.753 89.982L189.669 89.975C180.332 89.148 176.282 88.79 168.695 86.262C160.996 83.698 146.876 78.7589 146.876 78.7589V75.0405ZM168.69 89.871C159.847 87.539 146.876 83.506 146.876 83.506V87.001C146.876 87.001 162.897 90.821 168.634 92.091C173.812 93.239 180.886 93.905 189.693 94.534C200.585 95.314 209.484 95.923 209.484 95.923V94.977C209.484 94.977 193.838 93.702 189.748 93.423C185.658 93.148 177.534 92.203 168.69 89.871ZM146.876 91.835C146.876 91.835 157.484 93.67 168.69 95.534C177.091 96.931 188.477 97.811 189.693 97.867C190.91 97.921 209.48 99.199 209.48 99.199V100.197C209.48 100.197 197.594 99.581 189.693 99.144C181.462 98.686 173.282 98.186 168.634 97.7C158.226 96.61 146.876 95.17 146.876 95.17V91.835ZM168.69 101.198C163.606 101.086 146.876 100.456 146.876 100.456V103.725H209.48V102.752C209.48 102.752 173.775 101.308 168.69 101.198ZM189.693 52.2843C175.257 49.1617 171.469 43.9709 168.943 40.5105C168.819 40.3408 168.699 40.1753 168.58 40.0142C166.037 36.5713 146.876 8.4785 146.876 8.4785V14.8185L146.995 14.975C148.666 17.1689 164.178 37.5364 168.634 43.2895C173.625 49.7311 181.339 51.3831 188.806 52.9824C189.102 53.0457 189.398 53.1091 189.693 53.1724C197.43 54.8381 209.484 57.1601 209.484 57.1601V56.272C209.484 56.272 193.603 53.13 189.693 52.2843ZM168.58 45.5658C172.228 50.3408 177.257 54.2828 189.693 56.7257C196.863 58.1345 209.48 60.5012 209.48 60.5012V61.3889C209.48 61.3889 198.426 59.2795 189.693 57.6692C180.96 56.0596 173.748 54.5024 168.58 48.5638C164.211 43.5447 148.095 24.3702 146.917 22.9694L146.876 22.9203V16.9173C146.876 16.9173 164.932 40.7912 168.58 45.5658ZM189.693 61.3334C176.761 58.8173 174.108 56.7443 168.634 50.7289C165.216 46.9734 147.852 26.4065 146.893 25.2711L146.876 25.2508V30.7974C146.876 30.7974 163.301 48.3713 168.58 53.5609C174.837 59.7122 180.747 60.7303 187.493 61.8923C188.216 62.0169 188.949 62.1431 189.693 62.2774C197.376 63.6652 209.48 65.8866 209.48 65.8866V64.9426C209.48 64.9426 194.866 62.3406 189.693 61.3334ZM92.0762 51.7629H88.9352L88.0066 48.702L87.0579 51.7629H83.9277L86.4792 53.7409L85.4854 56.8792L88.0066 54.9459L90.5284 56.8792L89.5444 53.7409L92.0762 51.7629ZM92.1909 92.159H89.0456L88.1217 89.214L87.173 92.159H84.0374L86.5935 94.066L85.6001 97.083L88.1217 95.224L90.6429 97.083L89.6596 94.066L92.1909 92.159ZM99.007 89.484H102.153L99.621 91.386L100.605 94.408L98.083 92.544L95.5617 94.408L96.5551 91.386L93.9988 89.484H97.1344L98.083 86.538L99.007 89.484ZM102.153 54.4575H99.007L98.083 51.5125L97.1344 54.4575H93.9988L96.5551 56.361L95.5617 59.3813L98.083 57.5206L100.605 59.3813L99.621 56.361L102.153 54.4575ZM106.402 61.8757H109.542L107.011 63.7767L107.995 66.7995L105.473 64.9387L102.956 66.7995L103.95 63.7767L101.393 61.8757H104.524L105.473 58.9303L106.402 61.8757ZM109.542 82.166H106.402L105.473 79.221L104.524 82.166H101.393L103.95 84.075L102.956 87.094L105.473 85.231L107.995 87.094L107.011 84.075L109.542 82.166ZM109.173 71.866H112.319L109.787 73.7699L110.77 76.7912L108.249 74.9273L105.727 76.7912L106.721 73.7699L104.164 71.866H107.296L108.249 68.9233L109.173 71.866ZM71.5895 61.9005H74.7352L72.2035 63.8038L73.1823 66.8248L70.6656 64.9635L68.1442 66.8248L69.1354 63.8038L66.5814 61.9005H69.717L70.6656 58.9556L71.5895 61.9005ZM72.064 71.8908H68.9206L67.9942 68.9485L67.0456 71.8908H63.9147L66.4664 73.7964L65.4726 76.8161L67.9942 74.9585L70.5156 76.8161L69.5323 73.7964L72.064 71.8908ZM71.5895 82.191H74.7352L72.2035 84.1L73.1823 87.119L70.6656 85.257L68.1442 87.119L69.1354 84.1L66.5814 82.191H69.717L70.6656 79.25L71.5895 82.191ZM82.025 89.508H78.8847L77.9552 86.563L77.007 89.508H73.8763L76.4278 91.412L75.434 94.432L77.9552 92.57L80.4721 94.432L79.4931 91.412L82.025 89.508Z" fill="white"/>
</g>
<defs>
<clipPath id="clip0_3_2">
<rect width="395" height="104" fill="white"/>
</clipPath>
</defs>
</svg>
