<?xml version="1.0" encoding="UTF-8"?>
<svg xmlns="http://www.w3.org/2000/svg" version="1.1" viewBox="0 0 180 180">
  <defs>
    <style>
      .cls-1 {
        fill: none;
        stroke: #000;
        stroke-linecap: round;
        stroke-linejoin: round;
      }
    </style>
  </defs>
  <!-- Generator: Adobe Illustrator 28.7.1, SVG Export Plug-In . SVG Version: 1.2.0 Build 142)  -->
  <g>
    <g id="Layer_2">
      <g>
        <g>
          <path class="cls-1" d="M55.7,114.7h.5c9,0,16.2,7.3,16.2,16.2v3.4h-33v-3.4c0-9,7.3-16.2,16.2-16.2h0Z"/>
          <circle class="cls-1" cx="56" cy="105" r="9.7"/>
        </g>
        <g>
          <path class="cls-1" d="M88.7,114.7h.5c9,0,16.2,7.3,16.2,16.2v3.4h-33v-3.4c0-9,7.3-16.2,16.2-16.2h.1Z"/>
          <circle class="cls-1" cx="88.9" cy="105" r="9.7"/>
        </g>
        <g>
          <path class="cls-1" d="M121.7,114.7h.5c9,0,16.2,7.3,16.2,16.2v3.4h-33v-3.4c0-9,7.3-16.2,16.2-16.2h.1Z"/>
          <circle class="cls-1" cx="121.9" cy="105" r="9.7"/>
        </g>
      </g>
      <g>
        <polygon class="cls-1" points="138.4 35.4 138.4 76.5 99 76.5 89 89.1 88.9 89.2 88.9 89.1 78.9 76.5 39.5 76.5 39.5 35.4 138.4 35.4"/>
        <rect class="cls-1" x="51.8" y="48.7" width="14.6" height="14.6"/>
        <polygon class="cls-1" points="99.3 64.1 78.6 64.1 88.9 47.8 88.9 47.7 89 47.8 99.3 64.1"/>
        <path class="cls-1" d="M118,64.2h-.3c-4.5,0-8.1-3.6-8.1-8.1v-.3c0-4.5,3.6-8.1,8.1-8.1h.3c4.5,0,8.1,3.6,8.1,8.1v.3c0,4.5-3.6,8.1-8.1,8.1Z"/>
      </g>
    </g>
  </g>
</svg>