<?xml version="1.0" encoding="UTF-8"?>
<svg xmlns="http://www.w3.org/2000/svg" version="1.1" viewBox="0 0 180 180">
  <defs>
    <style>
      .cls-1 {
        fill: none;
        stroke: #000;
        stroke-linecap: round;
        stroke-linejoin: round;
      }
    </style>
  </defs>
  <!-- Generator: Adobe Illustrator 28.7.1, SVG Export Plug-In . SVG Version: 1.2.0 Build 142)  -->
  <g>
    <g id="Layer_2">
      <g id="g1975">
        <g id="g1981">
          <path id="path1983" class="cls-1" d="M136.2,87.4h-59.7l-4.8-9.9c-.6-1.2-1.7-1.9-2.9-1.9h-26.2c-1.8,0-3.3,1.6-3.3,3.6v64.7c0,2.6,2,4.7,4.4,4.7h92.5c2.4,0,4.4-2.1,4.4-4.7v-51.8c0-2.6-2-4.7-4.4-4.7Z"/>
        </g>
        <g id="g1985">
          <path id="path1987" class="cls-1" d="M103.6,141.6h-27.2v-1.9c0-8.1,6.1-14.6,13.6-14.6s13.6,6.6,13.6,14.6c0,0,0,1.9,0,1.9Z"/>
        </g>
        <g id="g1989">
          <path id="path1991" class="cls-1" d="M100.4,113.9c0,6.2-4.7,11.2-10.4,11.2s-10.4-5-10.4-11.2,4.7-11.2,10.4-11.2,10.4,5,10.4,11.2Z"/>
        </g>
        <g id="g1993">
          <path id="path1995" class="cls-1" d="M115.9,141.6h-51.7c-2.1,0-3.7-1.8-3.7-4v-38.5c0-2.2,1.7-4,3.7-4h51.7c2.1,0,3.7,1.8,3.7,4v38.5c0,2.2-1.7,4-3.7,4Z"/>
        </g>
        <g id="g1997">
          <path id="path1999" class="cls-1" d="M72.9,50.7h17.8"/>
        </g>
        <g id="g2001">
          <path id="path2003" class="cls-1" d="M72.9,61.4h8.9"/>
        </g>
        <g id="g2005">
          <path id="path2007" class="cls-1" d="M72.9,70.2h8.9"/>
        </g>
        <g id="g2009">
          <path id="path2011" class="cls-1" d="M119,61.4h-28.3"/>
        </g>
        <g id="g2013">
          <path id="path2015" class="cls-1" d="M119,70.2h-28.3"/>
        </g>
        <g id="g2017">
          <path id="path2019" class="cls-1" d="M72.9,78.9h8.9"/>
        </g>
        <g id="g2021">
          <path id="path2023" class="cls-1" d="M119,78.9h-28.3"/>
        </g>
        <g id="g2025">
          <path id="path2027" class="cls-1" d="M136.2,87.4h-59.7l-4.8-9.9c-.6-1.2-1.7-1.9-2.9-1.9h-26.2c-1.8,0-3.3,1.6-3.3,3.6v64.7c0,2.6,2,4.7,4.4,4.7h92.5c2.4,0,4.4-2.1,4.4-4.7v-51.8c0-2.6-2-4.7-4.4-4.7Z"/>
        </g>
        <g id="g2029">
          <path id="path2031" class="cls-1" d="M68.9,75.7c1.2,0,2.4.7,2.9,1.9l4.8,9.9h50.4v-42c0-2.6-2-4.7-4.4-4.7h-53.3c-2.4,0-4.4,2.1-4.4,4.7v30.2h4Z"/>
        </g>
        <g id="g2033">
          <path id="path2035" class="cls-1" d="M64.9,75.7v-30.2c0-2.6,2-4.7,4.4-4.7h45.8v-4.7c0-2.6-2-4.7-4.4-4.7h-53.3c-2.4,0-4.4,2.1-4.4,4.7v39.7h11.9Z"/>
        </g>
      </g>
    </g>
  </g>
</svg>