<?xml version="1.0" encoding="UTF-8"?>
<svg xmlns="http://www.w3.org/2000/svg" version="1.1" viewBox="0 0 180 180">
  <defs>
    <style>
      .cls-1 {
        fill: none;
        stroke: #000;
        stroke-linecap: round;
        stroke-linejoin: round;
      }
    </style>
  </defs>
  <!-- Generator: Adobe Illustrator 28.7.1, SVG Export Plug-In . SVG Version: 1.2.0 Build 142)  -->
  <g>
    <g id="Layer_2">
      <g id="g3617">
        <g id="g3623">
          <path id="path3625" class="cls-1" d="M73.8,141.4h57.6c5.5,0,10-4.5,10-10"/>
        </g>
        <g id="g3627">
          <path id="path3629" class="cls-1" d="M38.6,131.4c0,5.5,4.5,10,10,10h18"/>
        </g>
        <g id="g3631">
          <path id="path3633" class="cls-1" d="M90,64.8c-2.9,0-5.2-2.3-5.2-5.2s2.3-5.2,5.2-5.2,5.2,2.3,5.2,5.2-2.3,5.2-5.2,5.2ZM111,61.4v-3.8c0-1-.7-1.8-1.7-1.9l-3.1-.5c-.7,0-1.3-.6-1.5-1.2,0-.3-.2-.6-.4-.9-.3-.6-.2-1.4.2-1.9l1.8-2.5c.6-.8.5-1.9-.2-2.5l-2.7-2.7c-.7-.7-1.8-.8-2.5-.2l-2.5,1.8c-.6.4-1.3.5-1.9.2-.3,0-.6-.3-.9-.4-.7-.2-1.1-.8-1.2-1.5l-.5-3.1c0-1-1-1.7-1.9-1.7h-3.8c-1,0-1.8.7-1.9,1.7l-.5,3.1c0,.7-.6,1.3-1.2,1.5-.3,0-.6.2-.9.4-.6.3-1.4.2-1.9-.2l-2.5-1.8c-.8-.6-1.9-.5-2.5.2l-2.7,2.7c-.7.7-.8,1.8-.2,2.5l1.8,2.5c.4.6.5,1.3.2,1.9,0,.3-.3.6-.4.9-.2.7-.8,1.1-1.5,1.2l-3.1.5c-1,0-1.7,1-1.7,1.9v3.8c0,1,.7,1.8,1.7,1.9l3.1.5c.7,0,1.3.6,1.5,1.2,0,.3.2.6.4.9.3.6.2,1.4-.2,1.9l-1.8,2.5c-.6.8-.5,1.9.2,2.5l2.7,2.7c.7.7,1.8.8,2.5.2l2.5-1.8c.6-.4,1.3-.5,1.9-.2.3,0,.6.3.9.4.7.2,1.1.8,1.2,1.5l.5,3.1c0,1,1,1.7,1.9,1.7h3.8c1,0,1.8-.7,1.9-1.7l.5-3.1c0-.7.6-1.3,1.2-1.5.3,0,.6-.2.9-.4.6-.3,1.4-.2,1.9.2l2.5,1.8c.8.6,1.9.5,2.5-.2l2.7-2.7c.7-.7.8-1.8.2-2.5l-1.8-2.5c-.4-.6-.5-1.3-.2-1.9,0-.3.3-.6.4-.9.2-.7.8-1.1,1.5-1.2l3.1-.5c1,0,1.7-1,1.7-1.9h0Z"/>
        </g>
        <g id="g3635">
          <path id="path3637" class="cls-1" d="M38.6,77.3v54.1c0-5.5,4.5-10,10-10s2.9.3,4.2.9c1.4.6,2.9-.4,2.9-1.9v-63.9c0-1.5-.8-2.9-2.1-3.6-1.5-.8-3.1-1.3-5-1.4-5.6,0-10.1,4.6-10.1,10.2v8.3"/>
        </g>
        <g id="g3639">
          <path id="path3641" class="cls-1" d="M124.3,92.1v28.2c0,1.5,1.6,2.5,2.9,1.9,1.3-.6,2.7-.9,4.2-.9,5.5,0,10,4.5,10,10V61.7c0-5.6-4.6-10.3-10.1-10.2-1.8,0-3.5.5-5,1.4-1.3.7-2.1,2.1-2.1,3.6v28.4"/>
        </g>
        <g id="g3643">
          <path id="path3645" class="cls-1" d="M90,97.2v6.3h18.8v6.3"/>
        </g>
        <g id="g3647">
          <path id="path3649" class="cls-1" d="M97.6,97.2h-15.3c-.9,0-1.6-.7-1.6-1.6v-6.9c0-.9.7-1.6,1.6-1.6h15.3c.9,0,1.6.7,1.6,1.6v6.9c0,.9-.7,1.6-1.6,1.6Z"/>
        </g>
        <g id="g3651">
          <path id="path3653" class="cls-1" d="M116.5,119.8h-15.3c-.9,0-1.6-.7-1.6-1.6v-6.9c0-.9.7-1.6,1.6-1.6h15.3c.9,0,1.6.7,1.6,1.6v6.9c0,.9-.7,1.6-1.6,1.6Z"/>
        </g>
        <g id="g3655">
          <path id="path3657" class="cls-1" d="M90,103.5h-18.8v6.3"/>
        </g>
        <g id="g3659">
          <path id="path3661" class="cls-1" d="M63.5,119.8h15.3c.9,0,1.6-.7,1.6-1.6v-6.9c0-.9-.7-1.6-1.6-1.6h-15.3c-.9,0-1.6.7-1.6,1.6v6.9c0,.9.7,1.6,1.6,1.6Z"/>
        </g>
        <g id="g3663">
          <path id="path3665" class="cls-1" d="M90,80.5v6.7"/>
        </g>
        <g id="g3667">
          <path id="path3669" class="cls-1" d="M62,128.5h56"/>
        </g>
      </g>
    </g>
  </g>
</svg>