<?xml version="1.0" encoding="UTF-8"?>
<svg xmlns="http://www.w3.org/2000/svg" version="1.1" viewBox="0 0 180 180">
  <defs>
    <style>
      .cls-1 {
        fill: none;
        stroke: #000;
        stroke-linecap: round;
        stroke-linejoin: round;
      }
    </style>
  </defs>
  <!-- Generator: Adobe Illustrator 28.7.1, SVG Export Plug-In . SVG Version: 1.2.0 Build 142)  -->
  <g>
    <g id="Layer_2">
      <g id="g2116">
        <g id="g2122">
          <path id="path2124" class="cls-1" d="M107.8,99.6l8.7,8.7,27.5,27.5-9.3,9.3-27.5-27.5-8.7-8.7"/>
        </g>
        <g id="g2126">
          <path id="path2128" class="cls-1" d="M62.5,83.3c0-3.6-2.9-6.6-6.6-6.6s-6.6,2.9-6.6,6.6,2.9,6.6,6.6,6.6,6.6-2.9,6.6-6.6Z"/>
        </g>
        <g id="g2130">
          <path id="path2132" class="cls-1" d="M82.2,63.6c0-3.6-2.9-6.6-6.6-6.6s-6.6,2.9-6.6,6.6,2.9,6.6,6.6,6.6,6.6-2.9,6.6-6.6Z"/>
        </g>
        <g id="g2134">
          <path id="path2136" class="cls-1" d="M102,83.3c0-3.6-2.9-6.6-6.6-6.6s-3.5.7-4.7,1.9c-1.2,1.2-1.9,2.8-1.9,4.7,0,3.6,2.9,6.6,6.6,6.6s6.6-2.9,6.6-6.6Z"/>
        </g>
        <g id="g2138">
          <path id="path2140" class="cls-1" d="M60.6,78.7l10.4-10.4"/>
        </g>
        <g id="g2142">
          <path id="path2144" class="cls-1" d="M80.3,68.2l10.4,10.4"/>
        </g>
        <g id="g2146">
          <path id="path2148" class="cls-1" d="M100,78.7l13.4-13.4,10.2-10.2"/>
        </g>
        <g id="g2150">
          <path id="path2152" class="cls-1" d="M134.8,50.4c0,3.6-2.9,6.6-6.6,6.6s-6.6-2.9-6.6-6.6,2.9-6.6,6.6-6.6,6.6,2.9,6.6,6.6Z"/>
        </g>
        <g id="g2154">
          <path id="path2156" class="cls-1" d="M107.2,117.6l9.3-9.3"/>
        </g>
        <g id="g2158">
          <path id="path2160" class="cls-1" d="M77.7,37.1c0,1.2-1,2.2-2.2,2.2s-2.2-1-2.2-2.2,1-2.2,2.2-2.2,2.2,1,2.2,2.2"/>
        </g>
        <g id="g2162">
          <path id="path2164" class="cls-1" d="M85.3,38.4c13.4,3.4,24.1,13.7,28.1,26.9,1.1,3.6,1.7,7.5,1.7,11.5,0,8.5-2.7,16.4-7.3,22.9-2.6,3.6-5.7,6.7-9.3,9.3-6.5,4.6-14.3,7.3-22.9,7.3-21.8,0-39.6-17.7-39.6-39.5s12.6-33.9,29.7-38.3"/>
        </g>
      </g>
    </g>
  </g>
</svg>