<svg width="290" height="280" viewBox="0 0 290 280" fill="none" xmlns="http://www.w3.org/2000/svg">
<g clip-path="url(#clip0_1_58)">
<path d="M290 0H0V280H290V0Z" fill="white"/>
<path d="M99.1646 31.5151C114.33 25.2332 130.585 22 147 22V42C133.211 42 119.557 44.7159 106.818 49.9926C94.079 55.2694 82.5039 63.0036 72.7538 72.7538C63.0036 82.5039 55.2694 94.0791 49.9926 106.818C44.7159 119.557 42 133.211 42 147C42 160.789 44.7159 174.443 49.9927 187.182C55.2694 199.921 63.0036 211.496 72.7538 221.246C82.5039 230.996 94.0791 238.731 106.818 244.007C119.557 249.284 133.211 252 147 252V272C130.585 272 114.33 268.767 99.1646 262.485C83.9989 256.203 70.219 246.996 58.6117 235.388C47.0043 223.781 37.7969 210.001 31.5151 194.835C25.2332 179.67 22 163.415 22 147C22 130.585 25.2332 114.33 31.5151 99.1646C37.7969 83.9989 47.0043 70.219 58.6117 58.6117C70.219 47.0043 83.9989 37.7969 99.1646 31.5151Z" fill="url(#paint0_linear_1_58)"/>
<path d="M192.835 262.485C177.67 268.767 161.415 272 145 272V252C158.789 252 172.443 249.284 185.182 244.007C197.921 238.731 209.496 230.996 219.246 221.246C228.996 211.496 236.731 199.921 242.007 187.182C247.284 174.443 250 160.789 250 147C250 133.211 247.284 119.557 242.007 106.818C236.731 94.0791 228.996 82.5039 219.246 72.7538C209.496 63.0036 197.921 55.2694 185.182 49.9926C172.443 44.7159 158.789 42 145 42V22C161.415 22 177.67 25.2332 192.835 31.5151C208.001 37.7969 221.781 47.0043 233.388 58.6117C244.996 70.219 254.203 83.9989 260.485 99.1646C266.767 114.33 270 130.585 270 147C270 163.415 266.767 179.67 260.485 194.835C254.203 210.001 244.996 223.781 233.388 235.388C221.781 246.996 208.001 256.203 192.835 262.485Z" fill="url(#paint1_linear_1_58)"/>
<path d="M143.16 8.88115L168.083 32.0416L143.16 55.2021C143.16 36.6089 143.16 27.0787 143.16 8.88115Z" fill="#005C96"/>
<path d="M104 53.5C104 41.6259 94.3741 32 82.5 32C70.6259 32 61 41.6259 61 53.5C61 65.3741 70.6259 75 82.5 75C94.3741 75 104 65.3741 104 53.5Z" fill="#8A9C3A"/>
<path d="M85.3242 44.7637H85.8164V47.459H85.6172C84.7266 47.459 83.9336 47.5918 83.2383 47.8574C82.543 48.123 81.9531 48.502 81.4688 48.9941C80.9922 49.4785 80.625 50.0645 80.3672 50.752C80.1172 51.4395 79.9922 52.209 79.9922 53.0605V55.8965C79.9922 56.5059 80.0508 57.0449 80.168 57.5137C80.293 57.9746 80.4688 58.3613 80.6953 58.6738C80.9297 58.9785 81.2031 59.209 81.5156 59.3652C81.8281 59.5137 82.1797 59.5879 82.5703 59.5879C82.9375 59.5879 83.2695 59.5098 83.5664 59.3535C83.8711 59.1973 84.1289 58.9785 84.3398 58.6973C84.5586 58.4082 84.7227 58.0723 84.832 57.6895C84.9492 57.2988 85.0078 56.873 85.0078 56.4121C85.0078 55.9512 84.9492 55.5254 84.832 55.1348C84.7227 54.7441 84.5586 54.4082 84.3398 54.127C84.1211 53.8379 83.8555 53.6152 83.543 53.459C83.2305 53.3027 82.8789 53.2246 82.4883 53.2246C81.957 53.2246 81.4883 53.3496 81.082 53.5996C80.6836 53.8418 80.3711 54.1543 80.1445 54.5371C79.918 54.9199 79.7969 55.3223 79.7812 55.7441L78.7617 55.0879C78.7852 54.4863 78.9102 53.916 79.1367 53.377C79.3711 52.8379 79.6914 52.3613 80.0977 51.9473C80.5117 51.5254 81.0078 51.1973 81.5859 50.9629C82.1641 50.7207 82.8164 50.5996 83.543 50.5996C84.3398 50.5996 85.0391 50.752 85.6406 51.0566C86.25 51.3613 86.7578 51.7793 87.1641 52.3105C87.5703 52.8418 87.875 53.4551 88.0781 54.1504C88.2812 54.8457 88.3828 55.5879 88.3828 56.377C88.3828 57.2051 88.2461 57.9746 87.9727 58.6855C87.707 59.3965 87.3203 60.0176 86.8125 60.5488C86.3125 61.0801 85.7109 61.4941 85.0078 61.791C84.3047 62.0879 83.5156 62.2363 82.6406 62.2363C81.7344 62.2363 80.9102 62.0723 80.168 61.7441C79.4336 61.4082 78.8008 60.9395 78.2695 60.3379C77.7383 59.7363 77.3281 59.0215 77.0391 58.1934C76.7578 57.3652 76.6172 56.459 76.6172 55.4746V54.1621C76.6172 52.7871 76.8164 51.5293 77.2148 50.3887C77.6211 49.2402 78.2031 48.248 78.9609 47.4121C79.7188 46.5684 80.6328 45.916 81.7031 45.4551C82.7734 44.9941 83.9805 44.7637 85.3242 44.7637Z" fill="white"/>
<path d="M104 53.5C104 41.6259 94.3741 32 82.5 32C70.6259 32 61 41.6259 61 53.5C61 65.3741 70.6259 75 82.5 75C94.3741 75 104 65.3741 104 53.5Z" stroke="white" stroke-width="2"/>
<path d="M51 149.5C51 137.626 41.3741 128 29.5 128C17.6259 128 8 137.626 8 149.5C8 161.374 17.6259 171 29.5 171C41.3741 171 51 161.374 51 149.5Z" fill="#72BDC8"/>
<path d="M51 149.5C51 137.626 41.3741 128 29.5 128C17.6259 128 8 137.626 8 149.5C8 161.374 17.6259 171 29.5 171C41.3741 171 51 161.374 51 149.5Z" fill="#8A9C3A" stroke="white" stroke-width="2"/>
<path d="M26.8457 150.145L24.1504 149.5L25.123 140.852H34.709V143.582H27.9004L27.4785 147.367C27.7051 147.234 28.0488 147.094 28.5098 146.945C28.9707 146.789 29.4863 146.711 30.0566 146.711C30.8848 146.711 31.6191 146.84 32.2598 147.098C32.9004 147.355 33.4434 147.73 33.8887 148.223C34.3418 148.715 34.6855 149.316 34.9199 150.027C35.1543 150.738 35.2715 151.543 35.2715 152.441C35.2715 153.199 35.1543 153.922 34.9199 154.609C34.6855 155.289 34.3301 155.898 33.8535 156.438C33.377 156.969 32.7793 157.387 32.0605 157.691C31.3418 157.996 30.4902 158.148 29.5059 158.148C28.7715 158.148 28.0605 158.039 27.373 157.82C26.6934 157.602 26.0801 157.277 25.5332 156.848C24.9941 156.418 24.5605 155.898 24.2324 155.289C23.9121 154.672 23.7441 153.969 23.7285 153.18H27.0801C27.127 153.664 27.252 154.082 27.4551 154.434C27.666 154.777 27.9434 155.043 28.2871 155.23C28.6309 155.418 29.0332 155.512 29.4941 155.512C29.9238 155.512 30.291 155.43 30.5957 155.266C30.9004 155.102 31.1465 154.875 31.334 154.586C31.5215 154.289 31.6582 153.945 31.7441 153.555C31.8379 153.156 31.8848 152.727 31.8848 152.266C31.8848 151.805 31.8301 151.387 31.7207 151.012C31.6113 150.637 31.4434 150.312 31.2168 150.039C30.9902 149.766 30.7012 149.555 30.3496 149.406C30.0059 149.258 29.6035 149.184 29.1426 149.184C28.5176 149.184 28.0332 149.281 27.6895 149.477C27.3535 149.672 27.0723 149.895 26.8457 150.145Z" fill="white"/>
<path d="M104 249.5C104 237.626 94.3741 228 82.5 228C70.6259 228 61 237.626 61 249.5C61 261.374 70.6259 271 82.5 271C94.3741 271 104 261.374 104 249.5Z" fill="#8A9C3A"/>
<path d="M88.7285 251.656V254.305H76.4355L76.2715 252.254L83.3848 240.969H86.0684L83.1621 245.832L79.623 251.656H88.7285ZM86.7949 240.969V258.031H83.4199V240.969H86.7949Z" fill="white"/>
<path d="M104 249.5C104 237.626 94.3741 228 82.5 228C70.6259 228 61 237.626 61 249.5C61 261.374 70.6259 271 82.5 271C94.3741 271 104 261.374 104 249.5Z" stroke="white" stroke-width="2"/>
<path d="M232 249.5C232 237.626 222.374 228 210.5 228C198.626 228 189 237.626 189 249.5C189 261.374 198.626 271 210.5 271C222.374 271 232 261.374 232 249.5Z" fill="#8A9C3A"/>
<path d="M208.443 248.041H210.248C210.826 248.041 211.303 247.943 211.678 247.748C212.053 247.545 212.33 247.264 212.51 246.904C212.697 246.537 212.791 246.111 212.791 245.627C212.791 245.189 212.705 244.803 212.533 244.467C212.369 244.123 212.115 243.857 211.771 243.67C211.428 243.475 210.994 243.377 210.471 243.377C210.057 243.377 209.674 243.459 209.322 243.623C208.971 243.787 208.689 244.018 208.479 244.314C208.268 244.611 208.162 244.971 208.162 245.393H204.775C204.775 244.455 205.025 243.639 205.525 242.943C206.033 242.248 206.713 241.705 207.564 241.314C208.416 240.924 209.354 240.729 210.377 240.729C211.533 240.729 212.545 240.916 213.412 241.291C214.279 241.658 214.955 242.201 215.439 242.92C215.924 243.639 216.166 244.529 216.166 245.592C216.166 246.131 216.041 246.654 215.791 247.162C215.541 247.662 215.182 248.115 214.713 248.521C214.252 248.92 213.689 249.24 213.025 249.482C212.361 249.717 211.615 249.834 210.787 249.834H208.443V248.041ZM208.443 250.607V248.861H210.787C211.717 248.861 212.533 248.967 213.236 249.178C213.939 249.389 214.529 249.693 215.006 250.092C215.482 250.482 215.842 250.947 216.084 251.486C216.326 252.018 216.447 252.607 216.447 253.256C216.447 254.053 216.295 254.764 215.99 255.389C215.686 256.006 215.256 256.529 214.701 256.959C214.154 257.389 213.514 257.717 212.779 257.943C212.045 258.162 211.244 258.271 210.377 258.271C209.658 258.271 208.951 258.174 208.256 257.979C207.568 257.775 206.943 257.475 206.381 257.076C205.826 256.67 205.381 256.162 205.045 255.553C204.717 254.936 204.553 254.205 204.553 253.361H207.939C207.939 253.799 208.049 254.189 208.268 254.533C208.486 254.877 208.787 255.146 209.17 255.342C209.561 255.537 209.994 255.635 210.471 255.635C211.01 255.635 211.471 255.537 211.854 255.342C212.244 255.139 212.541 254.857 212.744 254.498C212.955 254.131 213.061 253.705 213.061 253.221C213.061 252.596 212.947 252.096 212.721 251.721C212.494 251.338 212.17 251.057 211.748 250.877C211.326 250.697 210.826 250.607 210.248 250.607H208.443Z" fill="white"/>
<path d="M232 249.5C232 237.626 222.374 228 210.5 228C198.626 228 189 237.626 189 249.5C189 261.374 198.626 271 210.5 271C222.374 271 232 261.374 232 249.5Z" stroke="white" stroke-width="2"/>
<path d="M282 149.5C282 137.626 272.374 128 260.5 128C248.626 128 239 137.626 239 149.5C239 161.374 248.626 171 260.5 171C272.374 171 282 161.374 282 149.5Z" fill="#8A9C3A"/>
<path d="M266.506 155.518V158.154H254.834V155.904L260.354 149.986C260.908 149.369 261.346 148.826 261.666 148.357C261.986 147.881 262.217 147.455 262.357 147.08C262.506 146.697 262.58 146.334 262.58 145.99C262.58 145.475 262.494 145.033 262.322 144.666C262.15 144.291 261.896 144.002 261.561 143.799C261.232 143.596 260.826 143.494 260.342 143.494C259.826 143.494 259.381 143.619 259.006 143.869C258.639 144.119 258.357 144.467 258.162 144.912C257.975 145.357 257.881 145.861 257.881 146.424H254.494C254.494 145.408 254.736 144.479 255.221 143.635C255.705 142.783 256.389 142.107 257.271 141.607C258.154 141.1 259.201 140.846 260.412 140.846C261.607 140.846 262.615 141.041 263.436 141.432C264.264 141.814 264.889 142.369 265.311 143.096C265.74 143.814 265.955 144.674 265.955 145.674C265.955 146.236 265.865 146.787 265.686 147.326C265.506 147.857 265.248 148.389 264.912 148.92C264.584 149.443 264.186 149.975 263.717 150.514C263.248 151.053 262.729 151.611 262.158 152.189L259.193 155.518H266.506Z" fill="white"/>
<path d="M282 149.5C282 137.626 272.374 128 260.5 128C248.626 128 239 137.626 239 149.5C239 161.374 248.626 171 260.5 171C272.374 171 282 161.374 282 149.5Z" stroke="white" stroke-width="2"/>
<path d="M232 53.5C232 41.6259 222.374 32 210.5 32C198.626 32 189 41.6259 189 53.5C189 65.3741 198.626 75 210.5 75C222.374 75 232 65.3741 232 53.5Z" fill="#8A9C3A"/>
<path d="M214.215 44.9512V62.0488H210.84V48.8418L206.785 50.1309V47.4707L213.852 44.9512H214.215Z" fill="white"/>
<path d="M232 53.5C232 41.6259 222.374 32 210.5 32C198.626 32 189 41.6259 189 53.5C189 65.3741 198.626 75 210.5 75C222.374 75 232 65.3741 232 53.5Z" stroke="white" stroke-width="2"/>
<path d="M91.6315 126.097L85.988 142.909H82.0307L89.4285 123.089H91.9579L91.6315 126.097ZM96.3504 142.909L90.6796 126.097L90.3396 123.089H92.8826L100.321 142.909H96.3504ZM96.092 135.545V138.499H85.4712V135.545H96.092Z" fill="#005C96"/>
<path d="M110.915 139.778V122H114.532V142.909H111.268L110.915 139.778ZM101.464 135.722V135.436C101.464 134.311 101.591 133.29 101.844 132.373C102.107 131.447 102.488 130.653 102.987 129.991C103.485 129.328 104.088 128.815 104.795 128.452C105.512 128.089 106.323 127.908 107.23 127.908C108.109 127.908 108.875 128.085 109.528 128.439C110.19 128.793 110.752 129.296 111.214 129.95C111.685 130.603 112.062 131.379 112.343 132.278C112.624 133.167 112.828 134.147 112.955 135.218V135.994C112.828 137.038 112.624 137.995 112.343 138.866C112.062 139.737 111.685 140.5 111.214 141.153C110.752 141.798 110.19 142.297 109.528 142.651C108.866 143.005 108.091 143.182 107.202 143.182C106.305 143.182 105.498 142.995 104.782 142.623C104.075 142.251 103.472 141.729 102.973 141.058C102.484 140.386 102.107 139.597 101.844 138.689C101.591 137.782 101.464 136.793 101.464 135.722ZM105.067 135.436V135.722C105.067 136.357 105.122 136.951 105.23 137.505C105.339 138.059 105.516 138.549 105.761 138.975C106.006 139.393 106.318 139.719 106.699 139.955C107.089 140.191 107.56 140.309 108.113 140.309C108.821 140.309 109.401 140.155 109.854 139.846C110.317 139.529 110.675 139.098 110.928 138.553C111.182 138 111.345 137.378 111.418 136.688V134.551C111.382 134.006 111.287 133.503 111.132 133.04C110.987 132.577 110.779 132.178 110.507 131.842C110.244 131.506 109.918 131.243 109.528 131.053C109.138 130.862 108.676 130.767 108.141 130.767C107.588 130.767 107.116 130.889 106.726 131.134C106.337 131.37 106.019 131.701 105.774 132.128C105.53 132.554 105.348 133.049 105.23 133.612C105.122 134.174 105.067 134.782 105.067 135.436Z" fill="#005C96"/>
<path d="M125.887 139.778V132.986C125.887 132.486 125.801 132.055 125.629 131.692C125.457 131.329 125.194 131.048 124.84 130.848C124.487 130.649 124.038 130.549 123.494 130.549C123.013 130.549 122.592 130.631 122.229 130.794C121.876 130.957 121.604 131.189 121.413 131.488C121.223 131.779 121.128 132.114 121.128 132.495H117.524C117.524 131.887 117.669 131.311 117.959 130.767C118.249 130.213 118.662 129.723 119.197 129.296C119.741 128.861 120.389 128.521 121.141 128.275C121.903 128.03 122.755 127.908 123.698 127.908C124.813 127.908 125.806 128.099 126.676 128.48C127.555 128.852 128.244 129.414 128.743 130.168C129.251 130.921 129.505 131.869 129.505 133.013V139.438C129.505 140.173 129.55 140.804 129.641 141.33C129.74 141.847 129.885 142.297 130.076 142.678V142.909H126.418C126.245 142.537 126.114 142.065 126.023 141.494C125.933 140.913 125.887 140.341 125.887 139.778ZM126.39 133.938L126.418 136.076H124.147C123.585 136.076 123.09 136.135 122.664 136.253C122.238 136.361 121.889 136.525 121.617 136.743C121.345 136.951 121.141 137.205 121.005 137.505C120.869 137.795 120.801 138.127 120.801 138.499C120.801 138.862 120.883 139.188 121.046 139.479C121.218 139.769 121.463 140.001 121.78 140.173C122.107 140.336 122.488 140.418 122.923 140.418C123.557 140.418 124.11 140.291 124.582 140.037C125.053 139.774 125.42 139.456 125.683 139.084C125.946 138.712 126.087 138.358 126.105 138.022L127.138 139.574C127.011 139.946 126.821 140.341 126.567 140.758C126.313 141.176 125.987 141.566 125.588 141.929C125.189 142.292 124.709 142.592 124.147 142.828C123.585 143.064 122.932 143.182 122.188 143.182C121.236 143.182 120.384 142.991 119.632 142.61C118.879 142.229 118.285 141.707 117.85 141.044C117.415 140.382 117.198 139.629 117.198 138.785C117.198 138.004 117.343 137.314 117.633 136.715C117.923 136.116 118.353 135.613 118.925 135.204C119.496 134.787 120.203 134.474 121.046 134.265C121.898 134.047 122.873 133.938 123.97 133.938H126.39Z" fill="#005C96"/>
<path d="M136.331 131.012V148.572H132.728V128.18H136.059L136.331 131.012ZM145.783 135.395V135.681C145.783 136.752 145.656 137.745 145.402 138.662C145.157 139.57 144.794 140.364 144.314 141.044C143.833 141.716 143.235 142.242 142.519 142.623C141.812 142.995 140.996 143.182 140.071 143.182C139.164 143.182 138.376 143.009 137.705 142.664C137.034 142.31 136.467 141.811 136.005 141.167C135.543 140.522 135.171 139.774 134.89 138.921C134.618 138.059 134.414 137.119 134.278 136.103V135.191C134.414 134.111 134.618 133.131 134.89 132.25C135.171 131.361 135.543 130.594 136.005 129.95C136.467 129.296 137.029 128.793 137.691 128.439C138.362 128.085 139.146 127.908 140.044 127.908C140.978 127.908 141.798 128.085 142.505 128.439C143.221 128.793 143.824 129.301 144.314 129.963C144.803 130.626 145.171 131.416 145.415 132.332C145.66 133.249 145.783 134.27 145.783 135.395ZM142.179 135.681V135.395C142.179 134.742 142.12 134.138 142.002 133.584C141.884 133.022 141.703 132.532 141.458 132.114C141.213 131.688 140.896 131.357 140.506 131.121C140.116 130.885 139.645 130.767 139.092 130.767C138.539 130.767 138.063 130.857 137.664 131.039C137.265 131.22 136.939 131.479 136.685 131.815C136.431 132.151 136.232 132.55 136.087 133.013C135.951 133.467 135.86 133.97 135.815 134.524V136.783C135.896 137.455 136.055 138.059 136.291 138.594C136.526 139.129 136.871 139.556 137.324 139.874C137.786 140.191 138.385 140.35 139.119 140.35C139.672 140.35 140.144 140.228 140.533 139.982C140.923 139.737 141.241 139.402 141.485 138.975C141.73 138.54 141.907 138.04 142.016 137.478C142.124 136.915 142.179 136.316 142.179 135.681Z" fill="#005C96"/>
<path d="M155.37 128.18V130.767H146.939V128.18H155.37ZM149.196 124.559H152.8V138.662C152.8 139.098 152.859 139.433 152.976 139.669C153.094 139.905 153.271 140.064 153.507 140.146C153.743 140.228 154.024 140.268 154.35 140.268C154.586 140.268 154.803 140.255 155.003 140.228C155.202 140.2 155.37 140.173 155.506 140.146L155.519 142.841C155.22 142.941 154.88 143.023 154.5 143.086C154.128 143.15 153.706 143.182 153.235 143.182C152.428 143.182 151.721 143.045 151.113 142.773C150.506 142.492 150.035 142.043 149.699 141.425C149.364 140.799 149.196 139.973 149.196 138.948V124.559Z" fill="#005C96"/>
<path d="M165.868 139.778V132.986C165.868 132.486 165.782 132.055 165.61 131.692C165.438 131.329 165.175 131.048 164.821 130.848C164.468 130.649 164.019 130.549 163.475 130.549C162.994 130.549 162.573 130.631 162.21 130.794C161.857 130.957 161.585 131.189 161.394 131.488C161.204 131.779 161.109 132.114 161.109 132.495H157.505C157.505 131.887 157.65 131.311 157.94 130.767C158.23 130.213 158.643 129.723 159.178 129.296C159.722 128.861 160.37 128.521 161.122 128.275C161.884 128.03 162.736 127.908 163.679 127.908C164.794 127.908 165.787 128.099 166.657 128.48C167.536 128.852 168.225 129.414 168.724 130.168C169.232 130.921 169.486 131.869 169.486 133.013V139.438C169.486 140.173 169.531 140.804 169.622 141.33C169.721 141.847 169.866 142.297 170.057 142.678V142.909H166.399C166.226 142.537 166.095 142.065 166.004 141.494C165.914 140.913 165.868 140.341 165.868 139.778ZM166.371 133.938L166.399 136.076H164.128C163.566 136.076 163.071 136.135 162.645 136.253C162.219 136.361 161.87 136.525 161.598 136.743C161.326 136.951 161.122 137.205 160.986 137.505C160.85 137.795 160.782 138.127 160.782 138.499C160.782 138.862 160.864 139.188 161.027 139.479C161.199 139.769 161.444 140.001 161.761 140.173C162.088 140.336 162.469 140.418 162.904 140.418C163.538 140.418 164.091 140.291 164.563 140.037C165.034 139.774 165.401 139.456 165.664 139.084C165.927 138.712 166.068 138.358 166.086 138.022L167.119 139.574C166.992 139.946 166.802 140.341 166.548 140.758C166.294 141.176 165.968 141.566 165.569 141.929C165.17 142.292 164.69 142.592 164.128 142.828C163.566 143.064 162.913 143.182 162.169 143.182C161.217 143.182 160.365 142.991 159.613 142.61C158.86 142.229 158.266 141.707 157.831 141.044C157.396 140.382 157.179 139.629 157.179 138.785C157.179 138.004 157.324 137.314 157.614 136.715C157.904 136.116 158.334 135.613 158.906 135.204C159.477 134.787 160.184 134.474 161.027 134.265C161.879 134.047 162.854 133.938 163.951 133.938H166.371Z" fill="#005C96"/>
<path d="M179.685 128.18V130.767H171.253V128.18H179.685ZM173.511 124.559H177.115V138.662C177.115 139.098 177.174 139.433 177.291 139.669C177.409 139.905 177.586 140.064 177.822 140.146C178.057 140.228 178.339 140.268 178.665 140.268C178.901 140.268 179.118 140.255 179.318 140.228C179.517 140.2 179.685 140.173 179.821 140.146L179.834 142.841C179.535 142.941 179.195 143.023 178.814 143.086C178.443 143.15 178.021 143.182 177.55 143.182C176.743 143.182 176.036 143.045 175.428 142.773C174.821 142.492 174.349 142.043 174.014 141.425C173.679 140.799 173.511 139.973 173.511 138.948V124.559Z" fill="#005C96"/>
<path d="M185.886 128.18V142.909H182.282V128.18H185.886ZM182.037 124.328C182.037 123.792 182.219 123.348 182.581 122.994C182.953 122.64 183.452 122.463 184.077 122.463C184.703 122.463 185.197 122.64 185.56 122.994C185.931 123.348 186.117 123.792 186.117 124.328C186.117 124.854 185.931 125.294 185.56 125.648C185.197 126.002 184.703 126.179 184.077 126.179C183.452 126.179 182.953 126.002 182.581 125.648C182.219 125.294 182.037 124.854 182.037 124.328Z" fill="#005C96"/>
<path d="M188.674 135.694V135.409C188.674 134.329 188.828 133.335 189.136 132.427C189.444 131.511 189.893 130.717 190.482 130.045C191.072 129.374 191.792 128.852 192.645 128.48C193.497 128.099 194.467 127.908 195.555 127.908C196.661 127.908 197.64 128.099 198.492 128.48C199.353 128.852 200.079 129.374 200.668 130.045C201.257 130.717 201.706 131.511 202.014 132.427C202.323 133.335 202.477 134.329 202.477 135.409V135.694C202.477 136.765 202.323 137.759 202.014 138.676C201.706 139.583 201.257 140.377 200.668 141.058C200.079 141.729 199.358 142.251 198.506 142.623C197.654 142.995 196.679 143.182 195.582 143.182C194.494 143.182 193.519 142.995 192.658 142.623C191.797 142.251 191.072 141.729 190.482 141.058C189.893 140.377 189.444 139.583 189.136 138.676C188.828 137.759 188.674 136.765 188.674 135.694ZM192.264 135.409V135.694C192.264 136.339 192.327 136.942 192.454 137.505C192.581 138.068 192.776 138.562 193.039 138.989C193.302 139.415 193.642 139.751 194.059 139.996C194.485 140.232 194.993 140.35 195.582 140.35C196.162 140.35 196.661 140.232 197.078 139.996C197.495 139.751 197.835 139.415 198.098 138.989C198.37 138.562 198.569 138.068 198.696 137.505C198.823 136.942 198.887 136.339 198.887 135.694V135.409C198.887 134.773 198.823 134.179 198.696 133.625C198.569 133.063 198.37 132.568 198.098 132.142C197.835 131.706 197.49 131.366 197.064 131.121C196.647 130.866 196.144 130.739 195.555 130.739C194.975 130.739 194.476 130.866 194.059 131.121C193.642 131.366 193.302 131.706 193.039 132.142C192.776 132.568 192.581 133.063 192.454 133.625C192.327 134.179 192.264 134.773 192.264 135.409Z" fill="#005C96"/>
<path d="M208.61 131.325V142.909H205.02V128.18H208.392L208.61 131.325ZM208.039 135.014H206.978C206.987 133.943 207.132 132.972 207.413 132.101C207.694 131.229 208.088 130.481 208.596 129.855C209.113 129.228 209.725 128.747 210.432 128.412C211.139 128.076 211.928 127.908 212.798 127.908C213.505 127.908 214.145 128.008 214.716 128.207C215.287 128.407 215.776 128.725 216.184 129.16C216.601 129.596 216.919 130.168 217.136 130.876C217.363 131.574 217.476 132.436 217.476 133.462V142.909H213.859V133.435C213.859 132.763 213.759 132.232 213.56 131.842C213.369 131.452 213.088 131.175 212.717 131.012C212.354 130.848 211.905 130.767 211.37 130.767C210.817 130.767 210.332 130.88 209.915 131.107C209.507 131.325 209.163 131.629 208.882 132.019C208.61 132.409 208.401 132.858 208.256 133.367C208.111 133.875 208.039 134.424 208.039 135.014Z" fill="#005C96"/>
<path d="M86.2735 167.191C86.2735 166.81 86.2146 166.47 86.0968 166.17C85.988 165.862 85.784 165.585 85.4848 165.34C85.1947 165.086 84.7822 164.841 84.2473 164.605C83.7215 164.36 83.0415 164.106 82.2074 163.843C81.2827 163.552 80.4215 163.226 79.6236 162.863C78.8258 162.5 78.1232 162.078 77.5158 161.597C76.9175 161.116 76.4506 160.562 76.1151 159.936C75.7797 159.301 75.612 158.565 75.612 157.731C75.612 156.914 75.7842 156.17 76.1287 155.498C76.4823 154.826 76.9809 154.25 77.6246 153.769C78.2683 153.279 79.0253 152.903 79.8956 152.639C80.775 152.376 81.7451 152.245 82.8058 152.245C84.2745 152.245 85.5437 152.512 86.6135 153.048C87.6924 153.583 88.5264 154.309 89.1157 155.226C89.705 156.142 89.9997 157.172 89.9997 158.316H86.2735C86.2735 157.699 86.1421 157.154 85.8792 156.682C85.6253 156.21 85.2355 155.838 84.7097 155.566C84.1929 155.294 83.5401 155.158 82.7514 155.158C81.9899 155.158 81.3552 155.271 80.8476 155.498C80.3489 155.725 79.9727 156.033 79.7188 156.424C79.4741 156.814 79.3517 157.25 79.3517 157.731C79.3517 158.094 79.4378 158.42 79.61 158.711C79.7823 158.992 80.0407 159.26 80.3852 159.514C80.7297 159.759 81.1558 159.99 81.6635 160.208C82.1803 160.417 82.7786 160.626 83.4586 160.834C84.5465 161.161 85.4984 161.524 86.3143 161.923C87.1393 162.323 87.8238 162.776 88.3678 163.285C88.9208 163.793 89.3333 164.365 89.6053 165C89.8863 165.635 90.0269 166.357 90.0269 167.164C90.0269 168.017 89.8591 168.78 89.5237 169.451C89.1882 170.123 88.7078 170.694 88.0822 171.166C87.4566 171.638 86.7042 171.997 85.8248 172.242C84.9544 172.487 83.9798 172.609 82.901 172.609C81.94 172.609 80.9881 172.482 80.0452 172.228C79.1114 171.965 78.2638 171.575 77.5022 171.057C76.7407 170.531 76.1332 169.869 75.6799 169.07C75.2266 168.262 75 167.318 75 166.239H78.7533C78.7533 166.865 78.853 167.4 79.0525 167.845C79.261 168.28 79.5511 168.639 79.9228 168.92C80.3036 169.193 80.7478 169.392 81.2555 169.519C81.7632 169.646 82.3117 169.71 82.901 169.71C83.6625 169.71 84.2881 169.605 84.7777 169.397C85.2763 169.179 85.648 168.879 85.8928 168.498C86.1466 168.117 86.2735 167.682 86.2735 167.191Z" fill="#005C96"/>
<path d="M101.396 168.839V157.608H105.013V172.337H101.613L101.396 168.839ZM101.858 165.789L102.973 165.762C102.973 166.751 102.864 167.663 102.647 168.498C102.429 169.333 102.089 170.059 101.627 170.676C101.173 171.284 100.598 171.761 99.8997 172.106C99.2016 172.441 98.3766 172.609 97.4247 172.609C96.6994 172.609 96.0376 172.51 95.4392 172.31C94.8409 172.101 94.3241 171.779 93.889 171.343C93.4629 170.899 93.1319 170.331 92.8962 169.642C92.6605 168.943 92.5427 168.103 92.5427 167.123V157.608H96.1328V167.151C96.1328 167.641 96.1872 168.049 96.296 168.376C96.4138 168.702 96.5725 168.97 96.7719 169.179C96.9805 169.379 97.2207 169.524 97.4927 169.615C97.7737 169.696 98.0729 169.737 98.3902 169.737C99.2605 169.737 99.945 169.565 100.444 169.22C100.951 168.866 101.314 168.394 101.532 167.804C101.749 167.205 101.858 166.533 101.858 165.789Z" fill="#005C96"/>
<path d="M111.785 160.439V178H108.181V157.608H111.513L111.785 160.439ZM121.236 164.823V165.109C121.236 166.18 121.11 167.173 120.856 168.09C120.611 168.997 120.248 169.791 119.768 170.472C119.287 171.144 118.689 171.67 117.973 172.051C117.266 172.423 116.45 172.609 115.525 172.609C114.618 172.609 113.83 172.437 113.159 172.092C112.488 171.738 111.921 171.239 111.459 170.595C110.996 169.95 110.625 169.202 110.344 168.349C110.072 167.486 109.868 166.547 109.732 165.531V164.619C109.868 163.539 110.072 162.559 110.344 161.678C110.625 160.789 110.996 160.022 111.459 159.378C111.921 158.724 112.483 158.221 113.145 157.867C113.816 157.513 114.6 157.336 115.498 157.336C116.432 157.336 117.252 157.513 117.959 157.867C118.675 158.221 119.278 158.729 119.768 159.391C120.257 160.054 120.625 160.843 120.869 161.76C121.114 162.677 121.236 163.697 121.236 164.823ZM117.633 165.109V164.823C117.633 164.169 117.574 163.566 117.456 163.012C117.338 162.45 117.157 161.96 116.912 161.542C116.667 161.116 116.35 160.784 115.96 160.548C115.57 160.312 115.099 160.194 114.546 160.194C113.993 160.194 113.517 160.285 113.118 160.467C112.719 160.648 112.393 160.907 112.139 161.243C111.885 161.578 111.685 161.978 111.54 162.441C111.404 162.894 111.314 163.398 111.268 163.952V166.211C111.35 166.883 111.509 167.486 111.744 168.022C111.98 168.557 112.325 168.984 112.778 169.301C113.24 169.619 113.839 169.778 114.573 169.778C115.126 169.778 115.597 169.655 115.987 169.41C116.377 169.165 116.694 168.83 116.939 168.403C117.184 167.967 117.361 167.468 117.47 166.906C117.578 166.343 117.633 165.744 117.633 165.109Z" fill="#005C96"/>
<path d="M127.451 160.439V178H123.847V157.608H127.179L127.451 160.439ZM136.902 164.823V165.109C136.902 166.18 136.776 167.173 136.522 168.09C136.277 168.997 135.914 169.791 135.434 170.472C134.953 171.144 134.355 171.67 133.639 172.051C132.932 172.423 132.116 172.609 131.191 172.609C130.284 172.609 129.496 172.437 128.825 172.092C128.154 171.738 127.587 171.239 127.125 170.595C126.662 169.95 126.291 169.202 126.01 168.349C125.738 167.486 125.534 166.547 125.398 165.531V164.619C125.534 163.539 125.738 162.559 126.01 161.678C126.291 160.789 126.662 160.022 127.125 159.378C127.587 158.724 128.149 158.221 128.811 157.867C129.482 157.513 130.266 157.336 131.164 157.336C132.098 157.336 132.918 157.513 133.625 157.867C134.341 158.221 134.944 158.729 135.434 159.391C135.923 160.054 136.291 160.843 136.535 161.76C136.78 162.677 136.902 163.697 136.902 164.823ZM133.299 165.109V164.823C133.299 164.169 133.24 163.566 133.122 163.012C133.004 162.45 132.823 161.96 132.578 161.542C132.333 161.116 132.016 160.784 131.626 160.548C131.236 160.312 130.765 160.194 130.212 160.194C129.659 160.194 129.183 160.285 128.784 160.467C128.385 160.648 128.059 160.907 127.805 161.243C127.551 161.578 127.351 161.978 127.206 162.441C127.07 162.894 126.98 163.398 126.934 163.952V166.211C127.016 166.883 127.175 167.486 127.41 168.022C127.646 168.557 127.991 168.984 128.444 169.301C128.906 169.619 129.505 169.778 130.239 169.778C130.792 169.778 131.263 169.655 131.653 169.41C132.043 169.165 132.36 168.83 132.605 168.403C132.85 167.967 133.027 167.468 133.136 166.906C133.244 166.343 133.299 165.744 133.299 165.109Z" fill="#005C96"/>
<path d="M138.888 165.122V164.836C138.888 163.756 139.042 162.763 139.35 161.855C139.659 160.939 140.107 160.145 140.697 159.473C141.286 158.801 142.007 158.28 142.859 157.908C143.711 157.526 144.681 157.336 145.769 157.336C146.875 157.336 147.854 157.526 148.706 157.908C149.568 158.28 150.293 158.801 150.882 159.473C151.471 160.145 151.92 160.939 152.228 161.855C152.537 162.763 152.691 163.756 152.691 164.836V165.122C152.691 166.193 152.537 167.187 152.228 168.103C151.92 169.011 151.471 169.805 150.882 170.486C150.293 171.157 149.572 171.679 148.72 172.051C147.868 172.423 146.893 172.609 145.796 172.609C144.708 172.609 143.734 172.423 142.872 172.051C142.011 171.679 141.286 171.157 140.697 170.486C140.107 169.805 139.659 169.011 139.35 168.103C139.042 167.187 138.888 166.193 138.888 165.122ZM142.478 164.836V165.122C142.478 165.767 142.542 166.37 142.668 166.933C142.795 167.495 142.99 167.99 143.253 168.417C143.516 168.843 143.856 169.179 144.273 169.424C144.699 169.66 145.207 169.778 145.796 169.778C146.376 169.778 146.875 169.66 147.292 169.424C147.709 169.179 148.049 168.843 148.312 168.417C148.584 167.99 148.783 167.495 148.91 166.933C149.037 166.37 149.101 165.767 149.101 165.122V164.836C149.101 164.201 149.037 163.607 148.91 163.053C148.783 162.49 148.584 161.996 148.312 161.569C148.049 161.134 147.705 160.793 147.278 160.548C146.861 160.294 146.358 160.167 145.769 160.167C145.189 160.167 144.69 160.294 144.273 160.548C143.856 160.793 143.516 161.134 143.253 161.569C142.99 161.996 142.795 162.49 142.668 163.053C142.542 163.607 142.478 164.201 142.478 164.836Z" fill="#005C96"/>
<path d="M158.892 160.616V172.337H155.302V157.608H158.702L158.892 160.616ZM163.366 157.513L163.312 160.861C163.112 160.825 162.886 160.798 162.632 160.78C162.387 160.762 162.156 160.753 161.938 160.753C161.385 160.753 160.9 160.83 160.483 160.984C160.066 161.129 159.717 161.342 159.436 161.624C159.164 161.905 158.955 162.25 158.81 162.658C158.665 163.058 158.584 163.511 158.566 164.02L157.79 163.924C157.79 162.99 157.886 162.123 158.076 161.324C158.266 160.526 158.543 159.827 158.906 159.228C159.268 158.629 159.722 158.166 160.265 157.839C160.819 157.504 161.453 157.336 162.169 157.336C162.369 157.336 162.582 157.354 162.808 157.39C163.044 157.417 163.23 157.458 163.366 157.513Z" fill="#005C96"/>
<path d="M172.981 157.608V160.194H164.549V157.608H172.981ZM166.807 153.987H170.41V168.09C170.41 168.525 170.469 168.861 170.587 169.097C170.705 169.333 170.882 169.492 171.117 169.574C171.353 169.655 171.634 169.696 171.961 169.696C172.196 169.696 172.414 169.683 172.613 169.655C172.813 169.628 172.981 169.601 173.117 169.574L173.13 172.269C172.831 172.369 172.491 172.451 172.11 172.514C171.738 172.578 171.317 172.609 170.845 172.609C170.039 172.609 169.331 172.473 168.724 172.201C168.117 171.92 167.645 171.47 167.31 170.853C166.974 170.227 166.807 169.401 166.807 168.376V153.987Z" fill="#005C96"/>
<path d="M190.401 152.517V172.337H186.675V152.517H190.401ZM196.548 152.517V155.471H180.596V152.517H196.548Z" fill="#005C96"/>
<path d="M196.004 165.122V164.836C196.004 163.756 196.158 162.763 196.466 161.855C196.774 160.939 197.223 160.145 197.812 159.473C198.402 158.801 199.122 158.28 199.974 157.908C200.827 157.526 201.797 157.336 202.885 157.336C203.991 157.336 204.97 157.526 205.822 157.908C206.683 158.28 207.409 158.801 207.998 159.473C208.587 160.145 209.036 160.939 209.344 161.855C209.652 162.763 209.807 163.756 209.807 164.836V165.122C209.807 166.193 209.652 167.187 209.344 168.103C209.036 169.011 208.587 169.805 207.998 170.486C207.409 171.157 206.688 171.679 205.836 172.051C204.983 172.423 204.009 172.609 202.912 172.609C201.824 172.609 200.849 172.423 199.988 172.051C199.127 171.679 198.402 171.157 197.812 170.486C197.223 169.805 196.774 169.011 196.466 168.103C196.158 167.187 196.004 166.193 196.004 165.122ZM199.594 164.836V165.122C199.594 165.767 199.657 166.37 199.784 166.933C199.911 167.495 200.106 167.99 200.369 168.417C200.632 168.843 200.972 169.179 201.389 169.424C201.815 169.66 202.323 169.778 202.912 169.778C203.492 169.778 203.991 169.66 204.408 169.424C204.825 169.179 205.165 168.843 205.428 168.417C205.7 167.99 205.899 167.495 206.026 166.933C206.153 166.37 206.216 165.767 206.216 165.122V164.836C206.216 164.201 206.153 163.607 206.026 163.053C205.899 162.49 205.7 161.996 205.428 161.569C205.165 161.134 204.82 160.793 204.394 160.548C203.977 160.294 203.474 160.167 202.885 160.167C202.304 160.167 201.806 160.294 201.389 160.548C200.972 160.793 200.632 161.134 200.369 161.569C200.106 161.996 199.911 162.49 199.784 163.053C199.657 163.607 199.594 164.201 199.594 164.836Z" fill="#005C96"/>
<path d="M211.778 165.122V164.836C211.778 163.756 211.932 162.763 212.241 161.855C212.549 160.939 212.998 160.145 213.587 159.473C214.176 158.801 214.897 158.28 215.749 157.908C216.601 157.526 217.572 157.336 218.659 157.336C219.765 157.336 220.745 157.526 221.597 157.908C222.458 158.28 223.183 158.801 223.773 159.473C224.362 160.145 224.811 160.939 225.119 161.855C225.427 162.763 225.581 163.756 225.581 164.836V165.122C225.581 166.193 225.427 167.187 225.119 168.103C224.811 169.011 224.362 169.805 223.773 170.486C223.183 171.157 222.463 171.679 221.61 172.051C220.758 172.423 219.784 172.609 218.687 172.609C217.599 172.609 216.624 172.423 215.763 172.051C214.902 171.679 214.176 171.157 213.587 170.486C212.998 169.805 212.549 169.011 212.241 168.103C211.932 167.187 211.778 166.193 211.778 165.122ZM215.368 164.836V165.122C215.368 165.767 215.432 166.37 215.559 166.933C215.686 167.495 215.881 167.99 216.144 168.417C216.407 168.843 216.747 169.179 217.164 169.424C217.59 169.66 218.097 169.778 218.687 169.778C219.267 169.778 219.765 169.66 220.183 169.424C220.6 169.179 220.94 168.843 221.202 168.417C221.474 167.99 221.674 167.495 221.801 166.933C221.928 166.37 221.991 165.767 221.991 165.122V164.836C221.991 164.201 221.928 163.607 221.801 163.053C221.674 162.49 221.474 161.996 221.202 161.569C220.94 161.134 220.595 160.793 220.169 160.548C219.752 160.294 219.249 160.167 218.659 160.167C218.079 160.167 217.581 160.294 217.164 160.548C216.747 160.793 216.407 161.134 216.144 161.569C215.881 161.996 215.686 162.49 215.559 163.053C215.432 163.607 215.368 164.201 215.368 164.836Z" fill="#005C96"/>
<path d="M232 151.428V172.337H228.396V151.428H232Z" fill="#005C96"/>
</g>
<defs>
<linearGradient id="paint0_linear_1_58" x1="84.5" y1="22" x2="84.5" y2="245.5" gradientUnits="userSpaceOnUse">
<stop stop-color="#005C96"/>
<stop offset="1" stop-color="#0D84CF"/>
</linearGradient>
<linearGradient id="paint1_linear_1_58" x1="207.5" y1="241" x2="207.5" y2="22" gradientUnits="userSpaceOnUse">
<stop stop-color="#0D84CF"/>
<stop offset="1" stop-color="#0376BE" stop-opacity="0.58"/>
</linearGradient>
<clipPath id="clip0_1_58">
<rect width="290" height="280" fill="white"/>
</clipPath>
</defs>
</svg>
