<svg width="200" height="200" xmlns="http://www.w3.org/2000/svg" viewBox="0 0 100 100" preserveAspectRatio="xMidYMid"><style>.a{fill:rgb(0,178,255)}</style><rect width="100" height="100" fill="none"/><rect x="46.5" y="10" width="7" height="20" rx="5" ry="5" transform="rotate(0 50 50)" class="a"><animate attributeName="opacity" from="1" to="0" dur="1s" begin="0s" repeatCount="indefinite"/></rect><rect x="46.5" y="10" width="7" height="20" rx="5" ry="5" transform="rotate(30 50 50)" class="a"><animate attributeName="opacity" from="1" to="0" dur="1s" begin="0.083s" repeatCount="indefinite"/></rect><rect x="46.5" y="10" width="7" height="20" rx="5" ry="5" transform="rotate(60 50 50)" class="a"><animate attributeName="opacity" from="1" to="0" dur="1s" begin="0.166s" repeatCount="indefinite"/></rect><rect x="46.5" y="10" width="7" height="20" rx="5" ry="5" transform="rotate(90 50 50)" class="a"><animate attributeName="opacity" from="1" to="0" dur="1s" begin="0.25s" repeatCount="indefinite"/></rect><rect x="46.5" y="10" width="7" height="20" rx="5" ry="5" transform="rotate(120 50 50)" class="a"><animate attributeName="opacity" from="1" to="0" dur="1s" begin="0.333s" repeatCount="indefinite"/></rect><rect x="46.5" y="10" width="7" height="20" rx="5" ry="5" transform="rotate(150 50 50)" class="a"><animate attributeName="opacity" from="1" to="0" dur="1s" begin="0.416s" repeatCount="indefinite"/></rect><rect x="46.5" y="10" width="7" height="20" rx="5" ry="5" transform="rotate(180 50 50)" class="a"><animate attributeName="opacity" from="1" to="0" dur="1s" begin="0.5s" repeatCount="indefinite"/></rect><rect x="46.5" y="10" width="7" height="20" rx="5" ry="5" transform="rotate(210 50 50)" class="a"><animate attributeName="opacity" from="1" to="0" dur="1s" begin="0.583s" repeatCount="indefinite"/></rect><rect x="46.5" y="10" width="7" height="20" rx="5" ry="5" transform="rotate(240 50 50)" class="a"><animate attributeName="opacity" from="1" to="0" dur="1s" begin="0.666s" repeatCount="indefinite"/></rect><rect x="46.5" y="10" width="7" height="20" rx="5" ry="5" transform="rotate(270 50 50)" class="a"><animate attributeName="opacity" from="1" to="0" dur="1s" begin="0.75s" repeatCount="indefinite"/></rect><rect x="46.5" y="10" width="7" height="20" rx="5" ry="5" transform="rotate(300 50 50)" class="a"><animate attributeName="opacity" from="1" to="0" dur="1s" begin="0.833s" repeatCount="indefinite"/></rect><rect x="46.5" y="10" width="7" height="20" rx="5" ry="5" transform="rotate(330 50 50)" class="a"><animate attributeName="opacity" from="1" to="0" dur="1s" begin="0.916s" repeatCount="indefinite"/></rect></svg>