<svg width="740" height="150" viewBox="0 0 740 150" fill="none" xmlns="http://www.w3.org/2000/svg">
<path d="M498.454 44.8037C498.454 46.2262 497.938 47.3422 496.908 48.1519C495.878 48.9616 494.456 49.3665 492.644 49.3665C490.832 49.3665 489.348 49.0856 488.194 48.5239V46.0511C488.925 46.3939 489.699 46.6638 490.518 46.8608C491.343 47.0577 492.111 47.1562 492.82 47.1562C493.857 47.1562 494.621 46.9593 495.11 46.5654C495.607 46.1714 495.856 45.6426 495.856 44.9788C495.856 44.3806 495.629 43.8737 495.176 43.4579C494.723 43.0421 493.788 42.5497 492.37 41.9807C490.909 41.3899 489.878 40.7151 489.279 39.9565C488.68 39.1979 488.38 38.286 488.38 37.221C488.38 35.8861 488.855 34.8357 489.805 34.0698C490.755 33.3039 492.03 32.9209 493.631 32.9209C495.165 32.9209 496.692 33.2564 498.212 33.9275L497.379 36.0612C495.954 35.463 494.683 35.164 493.565 35.164C492.717 35.164 492.074 35.35 491.636 35.722C491.197 36.0867 490.978 36.5718 490.978 37.1773C490.978 37.5931 491.066 37.9505 491.241 38.2496C491.416 38.5414 491.705 38.8185 492.107 39.0811C492.509 39.3438 493.232 39.6902 494.277 40.1206C495.454 40.6094 496.316 41.0653 496.864 41.4883C497.412 41.9114 497.814 42.3892 498.07 42.9217C498.326 43.4542 498.454 44.0816 498.454 44.8037V44.8037Z" fill="white"/>
<path d="M514.216 49.1478H511.585V41.9372H504.197V49.1478H501.578V33.1509H504.197V39.6941H511.585V33.1509H514.216V49.1478Z" fill="white"/>
<path d="M528.398 49.1478L526.798 44.7054H520.671L519.103 49.1478H516.341L522.337 33.0852H525.187L531.182 49.1478H528.398ZM526.108 42.4514L524.606 38.0965C524.496 37.8048 524.343 37.3452 524.146 36.7179C523.956 36.0906 523.824 35.631 523.751 35.3392C523.554 36.2365 523.265 37.2176 522.885 38.2826L521.438 42.4514H526.108Z" fill="white"/>
<path d="M535.941 40.5913H537.76C538.981 40.5913 539.865 40.3652 540.413 39.9129C540.961 39.4607 541.235 38.7896 541.235 37.8996C541.235 36.9951 540.939 36.3459 540.347 35.952C539.755 35.5581 538.864 35.3611 537.673 35.3611H535.941V40.5913ZM535.941 42.7578V49.1478H533.321V33.1509H537.848C539.916 33.1509 541.447 33.5375 542.441 34.3107C543.435 35.0839 543.931 36.2511 543.931 37.8121C543.931 39.8035 542.894 41.2223 540.819 42.0685L545.345 49.1478H542.364L538.528 42.7578H535.941Z" fill="white"/>
<path d="M547.659 49.1478V33.1509H550.278V49.1478H547.659Z" fill="white"/>
<path d="M567.848 49.1478H564.637L556.756 36.4006H556.668L556.723 37.1118C556.825 38.4686 556.876 39.7087 556.876 40.832V49.1478H554.498V33.1509H557.676L565.535 45.8324H565.601C565.587 45.6647 565.557 45.0556 565.514 44.0052C565.47 42.9474 565.448 42.1232 565.448 41.5323V33.1509H567.848L567.848 49.1478Z" fill="white"/>
<path d="M578.634 40.4708H584.531V48.5021C583.567 48.8157 582.639 49.0382 581.747 49.1695C580.863 49.3008 579.906 49.3665 578.876 49.3665C576.45 49.3665 574.579 48.6516 573.264 47.2219C571.948 45.7848 571.291 43.7606 571.291 41.1492C571.291 38.5742 572.032 36.5609 573.516 35.1093C574.999 33.6504 577.041 32.9209 579.643 32.9209C581.316 32.9209 582.902 33.2419 584.4 33.8838L583.479 36.0612C582.179 35.463 580.878 35.164 579.577 35.164C577.867 35.164 576.515 35.7001 575.521 36.7724C574.528 37.8447 574.031 39.3109 574.031 41.171C574.031 43.126 574.477 44.6141 575.368 45.6353C576.267 46.6493 577.557 47.1562 579.237 47.1562C580.085 47.1562 580.991 47.0505 581.956 46.8389V42.7138H578.634V40.4708Z" fill="white"/>
<path d="M604.163 49.1478L602.562 44.7054H596.435L594.868 49.1478H592.105L598.101 33.0852H600.951L606.947 49.1478H604.163ZM601.872 42.4514L600.37 38.0965C600.26 37.8048 600.107 37.3452 599.91 36.7179C599.72 36.0906 599.588 35.631 599.515 35.3392C599.318 36.2365 599.029 37.2176 598.649 38.2826L597.202 42.4514H601.872Z" fill="white"/>
<path d="M622.117 40.9962C622.117 43.6368 621.382 45.6574 619.914 47.0579C618.445 48.4512 616.329 49.1478 613.567 49.1478H609.084V33.1509H614.038C616.589 33.1509 618.573 33.8366 619.99 35.2079C621.408 36.5793 622.117 38.5087 622.117 40.9962ZM619.355 41.0837C619.355 37.2541 617.561 35.3393 613.973 35.3393H611.704V46.9486H613.567C617.425 46.9486 619.355 44.9936 619.355 41.0837Z" fill="white"/>
<path d="M635.067 49.1478L633.467 44.7054H627.34L625.772 49.1478H623.01L629.006 33.0852H631.856L637.852 49.1478H635.067ZM632.777 42.4514L631.275 38.0965C631.165 37.8048 631.012 37.3452 630.815 36.7179C630.625 36.0906 630.493 35.631 630.42 35.3392C630.223 36.2365 629.934 37.2176 629.554 38.2826L628.107 42.4514H632.777Z" fill="white"/>
<path d="M650.605 37.9872C650.605 39.6576 650.057 40.9378 648.961 41.8277C647.865 42.7177 646.305 43.1626 644.28 43.1626H642.614V49.1478H639.995V33.1509H644.609C646.612 33.1509 648.11 33.5594 649.103 34.3764C650.104 35.1934 650.605 36.397 650.605 37.9872V37.9872ZM642.614 40.9633H644.006C645.351 40.9633 646.338 40.7299 646.966 40.2631C647.594 39.7962 647.909 39.0668 647.909 38.0747C647.909 37.1556 647.627 36.4699 647.065 36.0176C646.502 35.5654 645.625 35.3392 644.434 35.3392H642.614V40.9633Z" fill="white"/>
<path d="M659.34 49.1478H656.721V35.3939H652.007V33.1509H664.054V35.3939H659.34V49.1478Z" fill="white"/>
<path d="M674.889 49.1478L673.288 44.7054H667.161L665.594 49.1478H662.832L668.827 33.0852H671.677L677.673 49.1478H674.889ZM672.598 42.4514L671.096 38.0965C670.987 37.8048 670.833 37.3452 670.636 36.7179C670.446 36.0906 670.314 35.631 670.241 35.3392C670.044 36.2365 669.755 37.2176 669.375 38.2826L667.928 42.4514H672.598Z" fill="white"/>
<path d="M683.768 49.1478H681.148V35.3939H676.435V33.1509H688.481V35.3939H683.768V49.1478Z" fill="white"/>
<path d="M690.942 49.1478V33.1509H693.562V49.1478H690.942Z" fill="white"/>
<path d="M712.009 41.1274C712.009 43.7316 711.355 45.7558 710.047 47.2001C708.746 48.6444 706.901 49.3666 704.512 49.3666C702.093 49.3666 700.233 48.6517 698.932 47.222C697.639 45.785 696.992 43.7462 696.992 41.1055C696.992 38.4649 697.643 36.437 698.943 35.0219C700.251 33.6067 702.115 32.8992 704.533 32.8992C706.916 32.8992 708.757 33.6177 710.058 35.0547C711.359 36.4917 712.009 38.516 712.009 41.1274V41.1274ZM699.776 41.1274C699.776 43.0969 700.175 44.5923 700.971 45.6136C701.768 46.6275 702.948 47.1345 704.512 47.1345C706.068 47.1345 707.241 46.6311 708.03 45.6245C708.827 44.6178 709.225 43.1188 709.225 41.1274C709.225 39.1652 708.83 37.6771 708.041 36.6632C707.259 35.6492 706.09 35.1422 704.533 35.1422C702.962 35.1422 701.775 35.6492 700.971 36.6632C700.175 37.6771 699.776 39.1652 699.776 41.1274Z" fill="white"/>
<path d="M728.802 49.1478H725.59L717.709 36.4006H717.622L717.676 37.1118C717.779 38.4686 717.83 39.7087 717.83 40.832V49.1478H715.451V33.1509H718.63L726.489 45.8324H726.555C726.54 45.6647 726.511 45.0556 726.467 44.0052C726.423 42.9474 726.401 42.1232 726.401 41.5323V33.1509H728.802L728.802 49.1478Z" fill="white"/>
<path d="M488.194 83.5738V67.5769H490.814V83.5738H488.194Z" fill="white"/>
<path d="M508.384 83.5738H505.172L497.291 70.8266H497.204L497.258 71.5378C497.361 72.8946 497.412 74.1347 497.412 75.258V83.5738H495.033V67.5769H498.212L506.071 80.2584H506.137C506.122 80.0907 506.093 79.4816 506.049 78.4312C506.005 77.3735 505.983 76.5492 505.983 75.9583V67.5769H508.384L508.384 83.5738Z" fill="white"/>
<path d="M515.213 83.5738H512.615V67.5769H521.658V69.7871H515.213V74.7875H521.252V77.0087H515.213V83.5738Z" fill="white"/>
<path d="M538.812 75.5534C538.812 78.1575 538.158 80.1818 536.85 81.6261C535.549 83.0704 533.704 83.7926 531.315 83.7926C528.896 83.7926 527.036 83.0777 525.736 81.648C524.442 80.211 523.795 78.1721 523.795 75.5315C523.795 72.8909 524.446 70.863 525.746 69.4479C527.055 68.0328 528.918 67.3252 531.337 67.3252C533.719 67.3252 535.56 68.0437 536.861 69.4807C538.162 70.9177 538.812 72.942 538.812 75.5534ZM526.58 75.5534C526.58 77.5229 526.978 79.0183 527.774 80.0395C528.571 81.0535 529.751 81.5604 531.315 81.5604C532.871 81.5604 534.044 81.0571 534.833 80.0505C535.63 79.0438 536.028 77.5448 536.028 75.5534C536.028 73.5912 535.633 72.1031 534.844 71.0892C534.062 70.0752 532.893 69.5683 531.337 69.5683C529.766 69.5683 528.578 70.0752 527.774 71.0892C526.978 72.1031 526.58 73.5912 526.58 75.5534Z" fill="white"/>
<path d="M544.874 75.0173H546.693C547.913 75.0173 548.798 74.7912 549.346 74.3389C549.894 73.8867 550.168 73.2156 550.168 72.3257C550.168 71.4211 549.872 70.7719 549.28 70.378C548.688 69.9841 547.797 69.7871 546.605 69.7871H544.874V75.0173ZM544.874 77.1838V83.5738H542.254V67.5769H546.781C548.849 67.5769 550.38 67.9635 551.374 68.7367C552.367 69.5099 552.864 70.6771 552.864 72.2381C552.864 74.2295 551.827 75.6483 549.751 76.4945L554.278 83.5738H551.297L547.46 77.1838H544.874Z" fill="white"/>
<path d="M563.519 83.5738L558.871 70.2139H558.784C558.908 72.198 558.97 74.0581 558.97 75.7942V83.5738H556.591V67.5769H560.285L564.735 80.3022H564.801L569.383 67.5769H573.088V83.5738H570.567V75.6629C570.567 74.8678 570.585 73.832 570.621 72.5554C570.665 71.2789 570.702 70.5056 570.731 70.2357H570.643L565.832 83.5738H563.519Z" fill="white"/>
<path d="M587.272 83.5738L585.672 79.1314H579.544L577.977 83.5738H575.215L581.211 67.5112H584.06L590.056 83.5738H587.272ZM584.981 76.8774L583.48 72.5226C583.37 72.2308 583.216 71.7712 583.019 71.1439C582.829 70.5166 582.698 70.057 582.625 69.7652C582.427 70.6625 582.139 71.6436 581.759 72.7086L580.312 76.8774H584.981Z" fill="white"/>
<path d="M596.155 83.5738H593.536V69.82H588.822V67.5769H600.868V69.82H596.155V83.5738Z" fill="white"/>
<path d="M603.33 83.5738V67.5769H605.949V83.5738H603.33Z" fill="white"/>
<path d="M624.397 75.5534C624.397 78.1575 623.743 80.1818 622.435 81.6261C621.134 83.0704 619.289 83.7926 616.899 83.7926C614.48 83.7926 612.621 83.0777 611.32 81.648C610.027 80.211 609.38 78.1721 609.38 75.5315C609.38 72.8909 610.03 70.863 611.331 69.4479C612.639 68.0328 614.502 67.3252 616.921 67.3252C619.303 67.3252 621.145 68.0437 622.445 69.4807C623.746 70.9177 624.397 72.942 624.397 75.5534ZM612.164 75.5534C612.164 77.5229 612.562 79.0183 613.359 80.0395C614.155 81.0535 615.335 81.5604 616.899 81.5604C618.456 81.5604 619.628 81.0571 620.418 80.0505C621.214 79.0438 621.612 77.5448 621.612 75.5534C621.612 73.5912 621.218 72.1031 620.429 71.0892C619.647 70.0752 618.478 69.5683 616.921 69.5683C615.35 69.5683 614.163 70.0752 613.359 71.0892C612.562 72.1031 612.164 73.5912 612.164 75.5534Z" fill="white"/>
<path d="M641.189 83.5738H637.978L630.097 70.8266H630.009L630.064 71.5378C630.166 72.8946 630.217 74.1347 630.217 75.258V83.5738H627.839V67.5769H631.018L638.877 80.2584H638.942C638.928 80.0907 638.899 79.4816 638.855 78.4312C638.811 77.3735 638.789 76.5492 638.789 75.9583V67.5769H641.189L641.189 83.5738Z" fill="white"/>
<path d="M500.251 118L498.651 113.558H492.523L490.956 118H488.194L494.19 101.937H497.039L503.035 118H500.251ZM497.96 111.304L496.459 106.949C496.349 106.657 496.195 106.197 495.998 105.57C495.808 104.943 495.677 104.483 495.604 104.191C495.406 105.089 495.118 106.07 494.738 107.135L493.291 111.304H497.96Z" fill="white"/>
<path d="M511.547 104.016C510.042 104.016 508.858 104.549 507.995 105.614C507.133 106.679 506.702 108.148 506.702 110.023C506.702 111.985 507.115 113.47 507.941 114.476C508.774 115.483 509.976 115.986 511.547 115.986C512.226 115.986 512.884 115.921 513.52 115.79C514.156 115.651 514.817 115.476 515.504 115.264V117.507C514.247 117.982 512.822 118.219 511.229 118.219C508.883 118.219 507.082 117.511 505.825 116.096C504.568 114.673 503.94 112.642 503.94 110.001C503.94 108.338 504.243 106.883 504.85 105.636C505.464 104.388 506.348 103.433 507.502 102.769C508.657 102.105 510.012 101.773 511.569 101.773C513.206 101.773 514.718 102.116 516.107 102.802L515.164 104.979C514.623 104.724 514.05 104.501 513.443 104.312C512.844 104.115 512.212 104.016 511.547 104.016V104.016Z" fill="white"/>
<path d="M521.604 109.443H523.423C524.643 109.443 525.528 109.217 526.076 108.765C526.624 108.313 526.898 107.642 526.898 106.752C526.898 105.847 526.602 105.198 526.01 104.804C525.418 104.41 524.527 104.213 523.335 104.213H521.604V109.443ZM521.604 111.61V118H518.984V102.003H523.511C525.579 102.003 527.11 102.39 528.104 103.163C529.097 103.936 529.594 105.103 529.594 106.664C529.594 108.656 528.557 110.074 526.481 110.921L531.008 118H528.027L524.19 111.61H521.604Z" fill="white"/>
<path d="M547.548 109.979C547.548 112.584 546.894 114.608 545.586 116.052C544.286 117.496 542.441 118.219 540.051 118.219C537.632 118.219 535.773 117.504 534.472 116.074C533.178 114.637 532.532 112.598 532.532 109.958C532.532 107.317 533.182 105.289 534.483 103.874C535.791 102.459 537.654 101.751 540.073 101.751C542.455 101.751 544.297 102.47 545.597 103.907C546.898 105.344 547.548 107.368 547.548 109.979V109.979ZM535.316 109.979C535.316 111.949 535.714 113.444 536.511 114.466C537.307 115.48 538.487 115.987 540.051 115.987C541.607 115.987 542.78 115.483 543.57 114.477C544.366 113.47 544.764 111.971 544.764 109.979C544.764 108.017 544.37 106.529 543.58 105.515C542.799 104.501 541.629 103.994 540.073 103.994C538.502 103.994 537.314 104.501 536.511 105.515C535.714 106.529 535.316 108.017 535.316 109.979Z" fill="white"/>
<path d="M560.23 113.656C560.23 115.078 559.715 116.194 558.684 117.004C557.654 117.814 556.233 118.219 554.42 118.219C552.608 118.219 551.125 117.938 549.97 117.376V114.903C550.701 115.246 551.476 115.516 552.294 115.713C553.12 115.91 553.887 116.008 554.596 116.008C555.633 116.008 556.397 115.811 556.887 115.417C557.384 115.024 557.632 114.495 557.632 113.831C557.632 113.233 557.406 112.726 556.952 112.31C556.499 111.894 555.564 111.402 554.146 110.833C552.685 110.242 551.655 109.567 551.055 108.809C550.456 108.05 550.157 107.138 550.157 106.073C550.157 104.738 550.632 103.688 551.582 102.922C552.531 102.156 553.807 101.773 555.407 101.773C556.942 101.773 558.469 102.109 559.989 102.78L559.156 104.913C557.731 104.315 556.459 104.016 555.341 104.016C554.494 104.016 553.85 104.202 553.412 104.574C552.974 104.939 552.754 105.424 552.754 106.029C552.754 106.445 552.842 106.803 553.017 107.102C553.193 107.393 553.481 107.671 553.883 107.933C554.285 108.196 555.009 108.542 556.054 108.973C557.23 109.462 558.092 109.917 558.64 110.34C559.189 110.764 559.59 111.241 559.846 111.774C560.102 112.306 560.23 112.934 560.23 113.656V113.656Z" fill="white"/>
<path d="M572.595 113.656C572.595 115.078 572.08 116.194 571.049 117.004C570.019 117.814 568.598 118.219 566.785 118.219C564.973 118.219 563.49 117.938 562.335 117.376V114.903C563.066 115.246 563.84 115.516 564.659 115.713C565.485 115.91 566.252 116.008 566.961 116.008C567.998 116.008 568.762 115.811 569.252 115.417C569.748 115.024 569.997 114.495 569.997 113.831C569.997 113.233 569.77 112.726 569.317 112.31C568.864 111.894 567.929 111.402 566.511 110.833C565.05 110.242 564.019 109.567 563.42 108.809C562.821 108.05 562.521 107.138 562.521 106.073C562.521 104.738 562.996 103.688 563.946 102.922C564.896 102.156 566.171 101.773 567.772 101.773C569.306 101.773 570.834 102.109 572.354 102.78L571.521 104.913C570.096 104.315 568.824 104.016 567.706 104.016C566.858 104.016 566.215 104.202 565.777 104.574C565.338 104.939 565.119 105.424 565.119 106.029C565.119 106.445 565.207 106.803 565.382 107.102C565.558 107.393 565.846 107.671 566.248 107.933C566.65 108.196 567.374 108.542 568.419 108.973C569.595 109.462 570.457 109.917 571.005 110.34C571.553 110.764 571.955 111.241 572.211 111.774C572.467 112.306 572.595 112.934 572.595 113.656V113.656Z" fill="white"/>
<path d="M590.614 118H581.549V102.003H590.614V104.213H584.169V108.568H590.208V110.756H584.169V115.779H590.614V118Z" fill="white"/>
<path d="M606.65 102.003V112.354C606.65 113.536 606.395 114.571 605.883 115.461C605.379 116.344 604.644 117.026 603.68 117.507C602.723 117.982 601.575 118.219 600.238 118.219C598.25 118.219 596.705 117.693 595.601 116.643C594.498 115.593 593.946 114.148 593.946 112.31V102.003H596.577V112.124C596.577 113.444 596.884 114.418 597.498 115.046C598.112 115.673 599.054 115.987 600.326 115.987C602.796 115.987 604.031 114.692 604.031 112.102V102.003H606.65Z" fill="white"/>
<path d="M613.37 109.443H615.189C616.41 109.443 617.294 109.217 617.842 108.765C618.39 108.313 618.664 107.642 618.664 106.752C618.664 105.847 618.368 105.198 617.776 104.804C617.184 104.41 616.293 104.213 615.102 104.213H613.37V109.443ZM613.37 111.61V118H610.75V102.003H615.277C617.345 102.003 618.876 102.39 619.87 103.163C620.863 103.936 621.36 105.103 621.36 106.664C621.36 108.656 620.323 110.074 618.247 110.921L622.774 118H619.793L615.957 111.61H613.37Z" fill="white"/>
<path d="M639.315 109.979C639.315 112.584 638.661 114.608 637.353 116.052C636.052 117.496 634.207 118.219 631.817 118.219C629.399 118.219 627.539 117.504 626.238 116.074C624.945 114.637 624.298 112.598 624.298 109.958C624.298 107.317 624.948 105.289 626.249 103.874C627.557 102.459 629.421 101.751 631.839 101.751C634.222 101.751 636.063 102.47 637.364 103.907C638.665 105.344 639.315 107.368 639.315 109.979V109.979ZM627.082 109.979C627.082 111.949 627.48 113.444 628.277 114.466C629.073 115.48 630.254 115.987 631.817 115.987C633.374 115.987 634.547 115.483 635.336 114.477C636.133 113.47 636.531 111.971 636.531 109.979C636.531 108.017 636.136 106.529 635.347 105.515C634.565 104.501 633.396 103.994 631.839 103.994C630.268 103.994 629.081 104.501 628.277 105.515C627.48 106.529 627.082 108.017 627.082 109.979Z" fill="white"/>
<path d="M653.367 106.839C653.367 108.51 652.819 109.79 651.723 110.68C650.627 111.57 649.067 112.015 647.043 112.015H645.377V118H642.757V102.003H647.372C649.374 102.003 650.872 102.411 651.866 103.228C652.867 104.045 653.367 105.249 653.367 106.839V106.839ZM645.377 109.815H646.769C648.113 109.815 649.1 109.582 649.728 109.115C650.357 108.648 650.671 107.919 650.671 106.927C650.671 106.008 650.39 105.322 649.827 104.87C649.264 104.417 648.387 104.191 647.196 104.191H645.377V109.815Z" fill="white"/>
<path d="M665.632 118H656.567V102.003H665.632V104.213H659.187V108.568H665.226V110.756H659.187V115.779H665.632V118Z" fill="white"/>
<path d="M466.583 10.2001H465.647V140.918H466.583V10.2001Z" fill="white"/>
<path d="M208.416 140.918L203.995 126.428H181.761L177.34 140.918H163.408L184.932 79.7913H200.741L222.348 140.918H208.416ZM200.908 115.601C196.82 102.471 194.512 95.0452 193.983 93.3241C193.483 91.603 193.121 90.2428 192.899 89.2434C191.981 92.7967 189.353 101.583 185.015 115.601H200.908Z" fill="white"/>
<path d="M280.58 109.897C280.58 119.918 277.715 127.593 271.987 132.923C266.286 138.253 258.041 140.918 247.251 140.918H229.981V80.041H249.128C259.083 80.041 266.814 82.6643 272.32 87.9109C277.826 93.1575 280.58 100.486 280.58 109.897ZM267.148 110.23C267.148 97.1549 261.364 90.6175 249.795 90.6175H242.913V130.258H248.46C260.919 130.258 267.148 123.582 267.148 110.23V110.23Z" fill="white"/>
<path d="M328.863 140.918L324.441 126.428H302.208L297.787 140.918H283.854L305.378 79.7911H321.188L342.795 140.918H328.863ZM321.355 115.601C317.267 102.471 314.959 95.0451 314.43 93.324C313.93 91.6029 313.568 90.2427 313.346 89.2433C312.428 92.7966 309.8 101.583 305.462 115.601H321.355Z" fill="white"/>
<path d="M363.381 108.689H367.636C371.612 108.689 374.588 107.912 376.562 106.357C378.537 104.775 379.524 102.485 379.524 99.4867C379.524 96.4609 378.689 94.2263 377.021 92.7828C375.38 91.3393 372.794 90.6175 369.262 90.6175H363.381V108.689ZM392.58 99.0287C392.58 105.58 390.522 110.591 386.406 114.061C382.319 117.531 376.493 119.266 368.929 119.266H363.381V140.918H350.45V80.041H369.93C377.327 80.041 382.944 81.6372 386.782 84.8296C390.647 87.9942 392.58 92.7272 392.58 99.0287V99.0287Z" fill="white"/>
<path d="M427.702 140.918H414.771V90.784H398.21V80.041H444.262V90.784H427.702V140.918Z" fill="white"/>
<path d="M188.472 22.0724C184.209 22.0724 180.909 23.6772 178.571 26.8868C176.232 30.0721 175.063 34.5218 175.063 40.2359C175.063 52.126 179.533 58.071 188.472 58.071C192.223 58.071 196.766 57.1349 202.1 55.2626V64.7455C197.716 66.5691 192.82 67.481 187.413 67.481C179.642 67.481 173.699 65.1345 169.582 60.4417C165.466 55.7246 163.408 48.965 163.408 40.1629C163.408 34.6191 164.419 29.7682 166.44 25.6103C168.462 21.4281 171.361 18.2307 175.136 16.018C178.936 13.781 183.381 12.6625 188.472 12.6625C193.66 12.6625 198.873 13.9147 204.11 16.4192L200.456 25.6103C198.459 24.662 196.449 23.8353 194.428 23.1301C192.406 22.425 190.421 22.0724 188.472 22.0724V22.0724Z" fill="white"/>
<path d="M223.693 66.7515H212.549V10H223.693V66.7515Z" fill="white"/>
<path d="M234.874 15.4344C234.874 11.8115 236.896 10 240.939 10C244.983 10 247.004 11.8115 247.004 15.4344C247.004 17.1608 246.493 18.5103 245.47 19.4829C244.471 20.4312 242.961 20.9053 240.939 20.9053C236.896 20.9053 234.874 19.0817 234.874 15.4344V15.4344ZM246.493 66.7515H235.349V25.975H246.493V66.7515Z" fill="white"/>
<path d="M294.722 66.7515H283.579V42.9348C283.579 39.9927 283.079 37.7922 282.081 36.3333C281.106 34.8501 279.56 34.1085 277.44 34.1085C274.591 34.1085 272.52 35.154 271.229 37.2451C269.938 39.3362 269.293 42.7768 269.293 47.5669V66.7515H258.149V25.975H266.662L268.16 31.1906H268.781C269.877 29.3184 271.461 27.8595 273.531 26.8139C275.601 25.744 277.976 25.2091 280.656 25.2091C286.77 25.2091 290.91 27.203 293.078 31.1906H294.065C295.161 29.2941 296.769 27.823 298.888 26.7774C301.031 25.7319 303.443 25.2091 306.122 25.2091C310.75 25.2091 314.245 26.4006 316.608 28.7834C318.995 31.142 320.189 34.9352 320.189 40.1629V66.7515H309.008V42.9348C309.008 39.9927 308.509 37.7922 307.51 36.3333C306.536 34.8501 304.989 34.1085 302.87 34.1085C300.142 34.1085 298.096 35.0811 296.732 37.0263C295.392 38.9715 294.722 42.0595 294.722 46.2903V66.7515Z" fill="white"/>
<path d="M357.602 66.7516L355.447 61.2077H355.154C353.279 63.5663 351.342 65.2076 349.345 66.1316C347.372 67.0312 344.79 67.4811 341.599 67.4811C337.678 67.4811 334.584 66.3626 332.319 64.1256C330.078 61.8886 328.958 58.7033 328.958 54.5697C328.958 50.2416 330.468 47.0563 333.488 45.0139C336.533 42.9471 341.112 41.8043 347.226 41.5854L354.314 41.3666V39.5794C354.314 35.4459 352.195 33.3791 347.957 33.3791C344.693 33.3791 340.856 34.3638 336.448 36.3334L332.757 28.82C337.458 26.3641 342.671 25.1362 348.395 25.1362C353.876 25.1362 358.077 26.3277 361 28.7106C363.923 31.0934 365.385 34.7164 365.385 39.5794V66.7516H357.602ZM354.314 47.8587L350.003 48.0046C346.763 48.1018 344.352 48.6854 342.768 49.7553C341.185 50.8251 340.394 52.4543 340.394 54.6426C340.394 57.7793 342.196 59.3476 345.801 59.3476C348.383 59.3476 350.441 58.606 351.976 57.1228C353.535 55.6395 354.314 53.67 354.314 51.2142V47.8587Z" fill="white"/>
<path d="M394.03 58.6181C395.978 58.6181 398.317 58.1926 401.045 57.3415V65.6208C398.268 66.8609 394.858 67.4809 390.814 67.4809C386.357 67.4809 383.105 66.3625 381.059 64.1255C379.037 61.8642 378.026 58.4844 378.026 53.9861V34.3273H372.692V29.6223L378.83 25.9021L382.045 17.2946H389.17V25.9751H400.606V34.3273H389.17V53.9861C389.17 55.5665 389.609 56.7337 390.485 57.4874C391.387 58.2412 392.568 58.6181 394.03 58.6181V58.6181Z" fill="white"/>
<path d="M426.183 33.1237C423.82 33.1237 421.969 33.8774 420.629 35.385C419.29 36.8682 418.522 38.9836 418.327 41.7312H433.965C433.917 38.9836 433.198 36.8682 431.81 35.385C430.421 33.8774 428.546 33.1237 426.183 33.1237V33.1237ZM427.754 67.4809C421.177 67.4809 416.038 65.6695 412.335 62.0465C408.633 58.4236 406.782 53.2931 406.782 46.6551C406.782 39.8225 408.487 34.5461 411.897 30.8259C415.331 27.0814 420.069 25.2091 426.11 25.2091C431.883 25.2091 436.377 26.8504 439.592 30.1329C442.807 33.4155 444.415 37.9502 444.415 43.7372V49.1352H418.072C418.193 52.2961 419.131 54.7641 420.885 56.5391C422.639 58.3141 425.099 59.2017 428.265 59.2017C430.726 59.2017 433.052 58.9463 435.244 58.4357C437.436 57.9251 439.726 57.1105 442.113 55.9921V64.5996C440.164 65.5722 438.082 66.2895 435.865 66.7515C433.649 67.2378 430.945 67.4809 427.754 67.4809V67.4809Z" fill="white"/>
<path d="M50.9013 37.5002C58.7284 37.294 62.7691 33.9765 63.5792 27.8364C64.3893 21.6961 59.976 16.451 53.7842 15.648C42.9596 14.2441 34.097 24.7928 28.6631 36.176C38.4471 33.5455 43.4043 37.6977 50.9013 37.5002Z" fill="white"/>
<path d="M32.8752 60.6783C38.9111 55.7036 40.019 50.6071 36.8171 45.2741C33.6153 39.9411 26.859 38.5244 21.4801 41.6989C12.0764 47.2485 11.6929 61.0037 14.5318 73.3078C20.5929 65.2212 27.0939 65.4431 32.8752 60.6783Z" fill="white"/>
<path d="M79.5133 30.376C85.7984 35.0375 91.0555 34.9192 95.5411 30.5903C100.027 26.2614 99.8434 19.4171 95.4771 14.9698C87.8439 7.19497 74.2621 10.0278 62.854 15.6299C72.1974 19.5912 73.4934 25.9111 79.5133 30.376Z" fill="white"/>
<path d="M75.9136 140.918C112.481 140.918 142.124 111.528 142.124 75.2739C142.124 58.4158 135.715 43.0419 125.18 31.417C133.626 82.0473 81.6067 71.8309 49.4408 81.7086C23.7081 89.6108 23.7192 110.125 26.8314 119.419C92.0058 144.751 120.908 105.679 127.323 82.9504C125.455 126.254 77.242 137.037 53.369 137.015C60.4058 139.541 67.9975 140.918 75.9136 140.918Z" fill="white"/>
<path d="M119.801 26.8399C114.963 23.7284 108.747 21.6458 102.537 20.4307C105.6 25.8345 105.698 30.1075 105.794 34.267C105.854 36.8679 105.912 39.4245 106.694 42.1854C108.817 49.6775 113.059 52.7575 119.276 52.0319C119.52 52.0035 119.761 51.9675 119.998 51.9245C121.642 47.1572 122.13 40.8009 120.687 32.1539L119.801 26.8399Z" fill="white"/>
<path d="M33.4766 84.6745C33.2215 80.1698 30.864 77.1688 26.5721 75.4852C20.7513 73.2018 14.5291 76.1716 12.226 81.9425C8.94926 90.153 13.7506 99.0484 20.9493 106.4C21.27 103.797 21.9093 101.103 22.9688 98.4203C24.9415 93.4261 28.3023 88.6518 33.4766 84.6745Z" fill="white"/>
</svg>
