<svg width="769" height="230" viewBox="0 0 769 230" fill="none" xmlns="http://www.w3.org/2000/svg">
<path d="M344.938 229.357L337.205 203.971H298.324L290.591 229.357H266.226L303.868 122.268H331.515L369.303 229.357H344.938ZM331.807 185.004C324.658 162.001 320.622 148.991 319.698 145.976C318.822 142.961 318.19 140.578 317.801 138.827C316.196 145.052 311.6 160.444 304.014 185.004H331.807Z" fill="#2F2F2F"/>
<path d="M471.139 175.01C471.139 192.566 466.13 206.013 456.111 215.35C446.142 224.688 431.722 229.357 412.853 229.357H382.652V122.705H416.135C433.546 122.705 447.066 127.301 456.695 136.493C466.324 145.684 471.139 158.523 471.139 175.01ZM447.649 175.593C447.649 152.687 437.534 141.234 417.302 141.234H405.266V210.682H414.968C436.756 210.682 447.649 198.986 447.649 175.593Z" fill="#2F2F2F"/>
<path d="M555.578 229.357L547.846 203.971H508.964L501.231 229.357H476.867L514.508 122.268H542.156L579.943 229.357H555.578ZM542.448 185.004C535.299 162.001 531.262 148.991 530.338 145.976C529.463 142.961 528.83 140.578 528.441 138.827C526.837 145.052 522.241 160.444 514.654 185.004H542.448Z" fill="#2F2F2F"/>
<path d="M615.944 172.894H623.384C630.339 172.894 635.543 171.532 638.995 168.809C642.448 166.037 644.175 162.025 644.175 156.772C644.175 151.472 642.716 147.557 639.798 145.028C636.929 142.499 632.406 141.234 626.229 141.234H615.944V172.894ZM667.008 155.97C667.008 167.447 663.409 176.225 656.211 182.305C649.062 188.384 638.874 191.423 625.646 191.423H615.944V229.357H593.329V122.705H627.397C640.333 122.705 650.157 125.502 656.868 131.094C663.628 136.639 667.008 144.93 667.008 155.97Z" fill="#2F2F2F"/>
<path d="M728.429 229.357H705.815V141.526H676.855V122.705H757.39V141.526H728.429V229.357Z" fill="#2F2F2F"/>
<path d="M310.059 21.1499C302.605 21.1499 296.833 23.9614 292.743 29.5843C288.654 35.1646 286.609 42.96 286.609 52.9706C286.609 73.8009 294.426 84.2161 310.059 84.2161C316.619 84.2161 324.564 82.5761 333.893 79.296V95.9092C326.225 99.104 317.663 100.701 308.206 100.701C294.618 100.701 284.224 96.5908 277.025 88.3694C269.826 80.1054 266.226 68.2632 266.226 52.8427C266.226 43.1304 267.994 34.6321 271.53 27.3479C275.065 20.0211 280.134 14.4195 286.737 10.5431C293.382 6.62407 301.156 4.66455 310.059 4.66455C319.133 4.66455 328.249 6.85834 337.407 11.2459L331.018 27.3479C327.525 25.6866 324.01 24.2383 320.475 23.0029C316.939 21.7676 313.467 21.1499 310.059 21.1499Z" fill="#2F2F2F"/>
<path d="M371.655 99.4234H352.166V0H371.655V99.4234Z" fill="#2F2F2F"/>
<path d="M391.208 9.52065C391.208 3.17356 394.744 0 401.815 0C408.886 0 412.422 3.17356 412.422 9.52065C412.422 12.5451 411.527 14.9092 409.738 16.6131C407.992 18.2745 405.35 19.1051 401.815 19.1051C394.744 19.1051 391.208 15.9103 391.208 9.52065ZM411.527 99.4234H392.039V27.9868H411.527V99.4234Z" fill="#2F2F2F"/>
<path d="M495.872 99.4235H476.384V57.6989C476.384 52.5445 475.511 48.6894 473.764 46.1336C472.06 43.5351 469.355 42.2359 465.649 42.2359C460.665 42.2359 457.044 44.0676 454.787 47.731C452.529 51.3944 451.4 57.422 451.4 65.8138V99.4235H431.912V27.9869H446.8L449.419 37.1241H450.506C452.423 33.8441 455.191 31.2882 458.812 29.4565C462.433 27.5822 466.586 26.645 471.272 26.645C481.964 26.645 489.206 30.1381 492.997 37.1241H494.722C496.639 33.8015 499.451 31.2243 503.157 29.3926C506.905 27.5609 511.122 26.645 515.808 26.645C523.902 26.645 530.014 28.7323 534.146 32.9069C538.321 37.0389 540.408 43.6842 540.408 52.8427V99.4235H520.856V57.6989C520.856 52.5445 519.983 48.6894 518.236 46.1336C516.532 43.5351 513.827 42.2359 510.121 42.2359C505.35 42.2359 501.772 43.9398 499.387 47.3476C497.044 50.7555 495.872 56.1654 495.872 63.5774V99.4235Z" fill="#2F2F2F"/>
<path d="M605.838 99.4236L602.068 89.7112H601.557C598.277 93.8432 594.891 96.7186 591.398 98.3373C587.947 99.9134 583.432 100.701 577.852 100.701C570.993 100.701 565.583 98.742 561.622 94.823C557.703 90.904 555.743 85.3237 555.743 78.082C555.743 70.4996 558.384 64.9193 563.666 61.341C568.991 57.7202 577 55.7181 587.692 55.3347L600.088 54.9513V51.8204C600.088 44.5788 596.382 40.958 588.97 40.958C583.262 40.958 576.552 42.6832 568.842 46.1336L562.389 32.9708C570.61 28.6685 579.726 26.5173 589.736 26.5173C599.321 26.5173 606.669 28.6046 611.781 32.7792C616.892 36.9538 619.448 43.3008 619.448 51.8204V99.4236H605.838ZM600.088 66.325L592.548 66.5805C586.882 66.7508 582.665 67.7732 579.896 69.6476C577.127 71.5219 575.743 74.3759 575.743 78.2097C575.743 83.7049 578.895 86.4524 585.2 86.4524C589.715 86.4524 593.315 85.1532 595.998 82.5547C598.724 79.9563 600.088 76.5058 600.088 72.2034V66.325Z" fill="#2F2F2F"/>
<path d="M669.542 85.1744C672.95 85.1744 677.04 84.4289 681.811 82.9379V97.4425C676.954 99.615 670.991 100.701 663.919 100.701C656.124 100.701 650.437 98.7418 646.859 94.8227C643.323 90.8612 641.556 84.94 641.556 77.0594V42.6191H632.227V34.3764L642.961 27.8589L648.584 12.7793H661.044V27.9867H681.044V42.6191H661.044V77.0594C661.044 79.8283 661.811 81.873 663.344 83.1935C664.92 84.5141 666.986 85.1744 669.542 85.1744Z" fill="#2F2F2F"/>
<path d="M725.773 40.5106C721.641 40.5106 718.404 41.8312 716.061 44.4722C713.718 47.0707 712.376 50.7767 712.035 55.5903H739.383C739.298 50.7767 738.041 47.0707 735.613 44.4722C733.185 41.8312 729.905 40.5106 725.773 40.5106ZM728.521 100.702C717.019 100.702 708.031 97.5279 701.556 91.1808C695.081 84.8337 691.844 75.8456 691.844 64.2164C691.844 52.2464 694.826 43.0026 700.789 36.4851C706.796 29.9251 715.081 26.645 725.645 26.645C735.741 26.645 743.6 29.5204 749.223 35.2711C754.846 41.0218 757.658 48.9663 757.658 59.1046V68.5613H711.588C711.801 74.0991 713.441 78.4227 716.508 81.5324C719.575 84.642 723.877 86.1969 729.415 86.1969C733.718 86.1969 737.786 85.7496 741.619 84.855C745.453 83.9605 749.457 82.5334 753.632 80.574V95.6536C750.224 97.3575 746.582 98.6141 742.706 99.4235C738.829 100.276 734.101 100.702 728.521 100.702Z" fill="#2F2F2F"/>
<path d="M69.4726 48.1776C83.1608 47.8164 90.2274 42.0044 91.644 31.2475C93.0609 20.4903 85.3428 11.3014 74.5144 9.8946C55.5841 7.43514 40.085 25.9154 30.582 45.8577C47.6926 41.2493 56.3617 48.5237 69.4726 48.1776Z" fill="#005C96"/>
<path d="M37.9484 88.7836C48.504 80.0684 50.4416 71.1398 44.8421 61.7969C39.2426 52.454 27.4271 49.972 18.0203 55.5335C1.57497 65.2559 0.904239 89.3537 5.86901 110.909C16.4688 96.7424 27.8379 97.1312 37.9484 88.7836Z" fill="#005C96"/>
<path d="M119.511 35.6968C130.502 43.8633 139.696 43.656 147.54 36.0721C155.385 28.4882 155.064 16.4978 147.428 8.70652C134.079 -4.91433 110.327 0.0485716 90.3765 9.86295C106.716 16.8027 108.983 27.8747 119.511 35.6968Z" fill="#005C96"/>
<path d="M113.215 229.357C177.164 229.357 229.005 177.868 229.005 114.354C229.005 84.8201 217.796 57.8864 199.372 37.5205C214.144 126.22 123.171 108.322 66.9182 125.627C21.9163 139.471 21.9356 175.409 27.3784 191.692C141.357 236.072 191.902 167.62 203.12 127.802C199.854 203.666 115.538 222.556 73.788 222.518C86.094 226.943 99.3706 229.357 113.215 229.357Z" fill="#8A9C3A"/>
<path d="M189.966 29.5018C181.505 24.0506 170.635 20.4021 159.775 18.2734C165.131 27.7404 165.303 35.2263 165.47 42.5133C165.575 47.0699 165.677 51.5489 167.045 56.3857C170.757 69.5111 178.176 74.9071 189.048 73.6358C189.475 73.586 189.896 73.5231 190.31 73.4476C193.186 65.0959 194.039 53.9602 191.516 38.8114L189.966 29.5018Z" fill="#005C96"/>
<path d="M39.0002 130.823C38.5541 122.931 34.4312 117.674 26.9254 114.724C16.7459 110.724 5.86435 115.927 1.83657 126.037C-3.89378 140.421 4.50288 156.005 17.0922 168.884C17.653 164.324 18.7709 159.604 20.6239 154.904C24.0737 146.155 29.9512 137.791 39.0002 130.823Z" fill="#005C96"/>
</svg>
