<?xml version="1.0" encoding="utf-8"?>
<!-- Generator: Adobe Illustrator 27.9.1, SVG Export Plug-In . SVG Version: 6.00 Build 0)  -->
<svg version="1.1" id="Layer_1" xmlns="http://www.w3.org/2000/svg" xmlns:xlink="http://www.w3.org/1999/xlink" x="0px" y="0px"
	 viewBox="0 0 205.7 34.2" style="enable-background:new 0 0 205.7 34.2;" xml:space="preserve">
<style type="text/css">
	.st0{fill:#50B0A4;}
	.st1{fill-rule:evenodd;clip-rule:evenodd;fill:url(#SVGID_1_);}
	.st2{fill-rule:evenodd;clip-rule:evenodd;fill:#084C7E;}
	.st3{fill-rule:evenodd;clip-rule:evenodd;fill:#FFFFFF;}
	.st4{fill-rule:evenodd;clip-rule:evenodd;fill:url(#SVGID_00000021120138511172510570000012852311285464948919_);}
	.st5{fill-rule:evenodd;clip-rule:evenodd;fill:url(#SVGID_00000142169894763135083750000003498552886317596830_);}
	.st6{fill-rule:evenodd;clip-rule:evenodd;fill:url(#SVGID_00000158721215509456588790000013950791660126031801_);}
	.st7{fill-rule:evenodd;clip-rule:evenodd;fill:url(#SVGID_00000099637223913024369620000014286749596560137652_);}
</style>
<g>
	<g>
		<g>
			<path class="st0" d="M53.2,10.5c0,0.9-0.3,1.8-0.8,2.5c-0.5,0.7-1.1,1.3-2,1.7c-0.8,0.4-1.8,0.6-2.9,0.6c-1.8,0-3.2-0.6-4.2-1.7
				c-1-1.2-1.5-2.8-1.5-4.9V7.9c0-1.3,0.2-2.5,0.7-3.5c0.5-1,1.1-1.8,2-2.3c0.9-0.5,1.9-0.8,3-0.8c1.6,0,3,0.4,4,1.3
				c1,0.9,1.6,2.1,1.7,3.6H50c0-0.8-0.2-1.4-0.6-1.8c-0.4-0.4-1-0.5-1.8-0.5c-0.8,0-1.4,0.3-1.8,0.9c-0.4,0.6-0.6,1.6-0.6,2.9v1
				c0,1.4,0.2,2.5,0.5,3.1c0.4,0.6,1,0.9,1.9,0.9c0.7,0,1.3-0.2,1.7-0.5c0.4-0.4,0.6-0.9,0.6-1.7H53.2z"/>
			<path class="st0" d="M58.4,15h-3.1V0.8h3.1V15z"/>
			<path class="st0" d="M60.8,2.4c0-0.4,0.2-0.8,0.5-1.1C61.6,1,62,0.9,62.5,0.9c0.5,0,0.9,0.1,1.3,0.4c0.3,0.3,0.5,0.7,0.5,1.1
				s-0.2,0.8-0.5,1.1c-0.3,0.3-0.7,0.4-1.3,0.4c-0.5,0-0.9-0.1-1.3-0.4C60.9,3.2,60.8,2.8,60.8,2.4z M64.1,15h-3.1V5h3.1V15z"/>
			<path class="st0" d="M69.5,5l0.1,1.2c0.7-0.9,1.7-1.4,2.9-1.4c1.3,0,2.1,0.5,2.6,1.5c0.7-1,1.7-1.5,3-1.5c2,0,3.1,1.2,3.1,3.7V15
				H78V8.7c0-0.5-0.1-0.9-0.3-1.1c-0.2-0.2-0.5-0.4-0.9-0.4c-0.6,0-1.1,0.3-1.4,0.8l0,0.1V15h-3.1V8.7c0-0.5-0.1-0.9-0.3-1.1
				c-0.2-0.2-0.5-0.4-1-0.4c-0.6,0-1.1,0.3-1.4,0.8v7h-3.1V5H69.5z"/>
			<path class="st0" d="M89,15c-0.1-0.2-0.2-0.5-0.3-0.9c-0.6,0.7-1.4,1.1-2.4,1.1c-0.9,0-1.8-0.3-2.4-0.9c-0.7-0.6-1-1.3-1-2.2
				c0-1.1,0.4-1.9,1.2-2.5c0.8-0.6,2-0.8,3.5-0.8h1V8.4c0-0.9-0.4-1.4-1.2-1.4c-0.7,0-1.1,0.4-1.1,1.1h-3.1c0-1,0.4-1.8,1.2-2.4
				s1.9-0.9,3.2-0.9s2.3,0.3,3,0.9c0.7,0.6,1.1,1.5,1.1,2.6v4.5c0,0.9,0.2,1.6,0.4,2.1V15H89z M87.1,13c0.4,0,0.7-0.1,1-0.3
				c0.3-0.2,0.4-0.4,0.6-0.6v-1.6h-0.9c-1.1,0-1.6,0.5-1.6,1.5c0,0.3,0.1,0.5,0.3,0.7C86.5,12.9,86.8,13,87.1,13z"/>
			<path class="st0" d="M97.6,2.5V5h1.7v2.2h-1.7v4.6c0,0.4,0.1,0.6,0.2,0.8c0.1,0.1,0.4,0.2,0.8,0.2c0.3,0,0.6,0,0.8-0.1v2.2
				c-0.6,0.2-1.2,0.3-1.8,0.3c-1.1,0-1.9-0.3-2.4-0.8c-0.5-0.5-0.8-1.3-0.8-2.3v-5h-1.3V5h1.3V2.5H97.6z"/>
			<path class="st0" d="M105.8,15.2c-1.5,0-2.8-0.5-3.7-1.4c-1-0.9-1.4-2.1-1.4-3.6V10c0-1,0.2-1.9,0.6-2.7c0.4-0.8,0.9-1.4,1.7-1.8
				c0.7-0.4,1.6-0.6,2.6-0.6c1.4,0,2.5,0.4,3.3,1.3c0.8,0.9,1.2,2.1,1.2,3.7V11h-6.2c0.1,0.6,0.4,1,0.7,1.3c0.4,0.3,0.9,0.5,1.5,0.5
				c1,0,1.8-0.3,2.3-1l1.4,1.7c-0.4,0.5-0.9,1-1.7,1.3C107.4,15.1,106.6,15.2,105.8,15.2z M105.5,7.2c-0.9,0-1.5,0.6-1.6,1.8h3.2
				V8.8c0-0.5-0.1-0.9-0.4-1.2C106.3,7.3,106,7.2,105.5,7.2z"/>
			<path class="st0" d="M56.4,31.5H52l-0.8,2.5h-3.5l5-13.5h3.1l5,13.5h-3.5L56.4,31.5z M52.7,29h2.9l-1.5-4.7L52.7,29z"/>
			<path class="st0" d="M61.8,34.1V20.5h4.4c1.2,0,2.3,0.3,3.2,0.8c1,0.5,1.7,1.3,2.2,2.3c0.5,1,0.8,2.1,0.8,3.3v0.6
				c0,1.2-0.3,2.4-0.8,3.3c-0.5,1-1.3,1.8-2.2,2.3c-1,0.6-2,0.8-3.2,0.8H61.8z M65,23v8.5h1.1c0.9,0,1.7-0.3,2.2-1
				c0.5-0.7,0.8-1.7,0.8-3V27c0-1.3-0.3-2.3-0.8-3c-0.5-0.7-1.2-1-2.2-1H65z"/>
			<path class="st0" d="M81.8,31.5h-4.5l-0.8,2.5h-3.5l5-13.5h3.1l5,13.5h-3.5L81.8,31.5z M78.1,29H81l-1.5-4.7L78.1,29z"/>
			<path class="st0" d="M90.4,29.5v4.6h-3.3V20.5h5.4c1,0,2,0.2,2.7,0.6c0.8,0.4,1.4,0.9,1.8,1.6c0.4,0.7,0.7,1.5,0.7,2.4
				c0,1.3-0.5,2.4-1.4,3.2c-0.9,0.8-2.2,1.2-3.9,1.2H90.4z M90.4,26.9h2.1c0.6,0,1.1-0.2,1.4-0.5c0.3-0.3,0.5-0.8,0.5-1.3
				c0-0.6-0.2-1.1-0.5-1.5c-0.3-0.4-0.8-0.6-1.4-0.6h-2.2V26.9z"/>
			<path class="st0" d="M110.2,23h-4.1v11h-3.3V23h-4v-2.5h11.3V23z"/>
		</g>
	</g>
	<g>
		<path class="st0" d="M124.6,5.2c0-0.2-0.1-0.4-0.2-0.5c-0.2-0.1-0.4-0.2-0.8-0.4s-0.7-0.3-1-0.4c-0.6-0.3-1-0.8-1-1.4
			c0-0.3,0.1-0.6,0.3-0.8c0.2-0.2,0.4-0.4,0.7-0.6c0.3-0.1,0.7-0.2,1.1-0.2c0.4,0,0.8,0.1,1.1,0.2c0.3,0.1,0.6,0.4,0.7,0.6
			s0.3,0.6,0.3,0.9h-1.2c0-0.3-0.1-0.5-0.2-0.6c-0.2-0.1-0.4-0.2-0.7-0.2c-0.3,0-0.5,0.1-0.7,0.2s-0.2,0.3-0.2,0.5
			c0,0.2,0.1,0.3,0.3,0.5s0.5,0.2,0.8,0.3c0.7,0.2,1.1,0.4,1.4,0.7c0.3,0.3,0.5,0.7,0.5,1.1c0,0.5-0.2,0.9-0.6,1.2
			c-0.4,0.3-0.9,0.4-1.5,0.4c-0.4,0-0.8-0.1-1.2-0.2c-0.4-0.2-0.6-0.4-0.8-0.7c-0.2-0.3-0.3-0.6-0.3-1h1.2c0,0.6,0.4,0.9,1.1,0.9
			c0.3,0,0.5-0.1,0.6-0.2C124.6,5.6,124.6,5.4,124.6,5.2z"/>
		<path class="st0" d="M131.2,6.7H130V4.3h-2.3v2.4h-1.2V1.1h1.2v2.3h2.3V1.1h1.2V6.7z"/>
		<path class="st0" d="M135.5,5.6h-2L133,6.7h-1.2l2.1-5.7h1.1l2.1,5.7h-1.2L135.5,5.6z M133.7,4.6h1.4l-0.7-2.1L133.7,4.6z"/>
		<path class="st0" d="M139.7,4.6h-0.9v2.1h-1.2V1.1h2.1c0.7,0,1.2,0.1,1.5,0.4c0.4,0.3,0.5,0.7,0.5,1.3c0,0.4-0.1,0.7-0.3,1
			c-0.2,0.3-0.4,0.5-0.8,0.6l1.2,2.3v0.1h-1.3L139.7,4.6z M138.8,3.7h0.9c0.3,0,0.5-0.1,0.7-0.2c0.2-0.1,0.2-0.4,0.2-0.6
			c0-0.3-0.1-0.5-0.2-0.6C140.3,2.1,140,2,139.7,2h-0.9V3.7z"/>
		<path class="st0" d="M143.9,6.7h-1.2V1.1h1.2V6.7z"/>
		<path class="st0" d="M149.6,6.7h-1.2L146.2,3v3.7H145V1.1h1.2l2.3,3.7V1.1h1.2V6.7z"/>
		<path class="st0" d="M155.1,6c-0.2,0.3-0.5,0.4-0.9,0.6c-0.4,0.1-0.8,0.2-1.3,0.2c-0.5,0-0.9-0.1-1.3-0.3
			c-0.4-0.2-0.7-0.5-0.9-0.9s-0.3-0.9-0.3-1.4V3.7c0-0.6,0.1-1.1,0.3-1.5c0.2-0.4,0.5-0.7,0.8-0.9c0.4-0.2,0.8-0.3,1.3-0.3
			c0.7,0,1.2,0.2,1.6,0.5c0.4,0.3,0.6,0.8,0.7,1.4H154c-0.1-0.3-0.2-0.6-0.3-0.7c-0.2-0.2-0.4-0.2-0.7-0.2c-0.4,0-0.7,0.1-0.9,0.4
			c-0.2,0.3-0.3,0.7-0.3,1.3v0.4c0,0.6,0.1,1,0.3,1.3c0.2,0.3,0.6,0.5,1,0.5c0.4,0,0.7-0.1,0.9-0.3v-1h-1.1V3.7h2.2V6z"/>
		<path class="st0" d="M161.2,5.6h-2l-0.4,1.2h-1.2l2.1-5.7h1.1l2.1,5.7h-1.2L161.2,5.6z M159.5,4.6h1.4l-0.7-2.1L159.5,4.6z"/>
		<path class="st0" d="M163.4,6.7V1.1h1.7c0.5,0,0.9,0.1,1.3,0.3c0.4,0.2,0.7,0.5,0.9,1c0.2,0.4,0.3,0.9,0.3,1.4V4
			c0,0.5-0.1,1-0.3,1.4c-0.2,0.4-0.5,0.7-0.9,1c-0.4,0.2-0.8,0.3-1.3,0.3H163.4z M164.5,2v3.8h0.6c0.5,0,0.8-0.1,1-0.4
			c0.2-0.3,0.4-0.7,0.4-1.3V3.8c0-0.6-0.1-1-0.4-1.3c-0.2-0.3-0.6-0.4-1-0.4H164.5z"/>
		<path class="st0" d="M171.7,5.6h-2l-0.4,1.2h-1.2l2.1-5.7h1.1l2.1,5.7h-1.2L171.7,5.6z M170,4.6h1.4l-0.7-2.1L170,4.6z"/>
		<path class="st0" d="M175.1,4.7v2h-1.2V1.1h2.2c0.4,0,0.8,0.1,1.1,0.2s0.6,0.4,0.7,0.7c0.2,0.3,0.3,0.6,0.3,1c0,0.6-0.2,1-0.6,1.3
			c-0.4,0.3-0.9,0.5-1.6,0.5H175.1z M175.1,3.8h1c0.3,0,0.5-0.1,0.7-0.2c0.2-0.1,0.2-0.4,0.2-0.6c0-0.3-0.1-0.5-0.2-0.7
			c-0.2-0.2-0.4-0.3-0.7-0.3h-1.1V3.8z"/>
		<path class="st0" d="M183.3,2h-1.7v4.7h-1.2V2h-1.7V1.1h4.6V2z"/>
		<path class="st0" d="M186.7,5.6h-2l-0.4,1.2H183l2.1-5.7h1.1l2.1,5.7h-1.2L186.7,5.6z M184.9,4.6h1.4l-0.7-2.1L184.9,4.6z"/>
		<path class="st0" d="M192.6,2h-1.7v4.7h-1.2V2H188V1.1h4.6V2z"/>
		<path class="st0" d="M194.5,6.7h-1.2V1.1h1.2V6.7z"/>
		<path class="st0" d="M200.3,4c0,0.6-0.1,1-0.3,1.5s-0.5,0.7-0.8,1c-0.4,0.2-0.8,0.3-1.3,0.3c-0.5,0-0.9-0.1-1.3-0.3
			c-0.4-0.2-0.7-0.5-0.9-1c-0.2-0.4-0.3-0.9-0.3-1.4V3.8c0-0.6,0.1-1,0.3-1.5c0.2-0.4,0.5-0.7,0.9-1c0.4-0.2,0.8-0.3,1.3-0.3
			c0.5,0,0.9,0.1,1.3,0.3c0.4,0.2,0.6,0.6,0.9,1c0.2,0.4,0.3,0.9,0.3,1.5V4z M199.1,3.8c0-0.6-0.1-1-0.3-1.4
			c-0.2-0.3-0.5-0.5-0.9-0.5c-0.4,0-0.7,0.2-0.9,0.5c-0.2,0.3-0.3,0.7-0.3,1.3V4c0,0.6,0.1,1,0.3,1.3c0.2,0.3,0.5,0.5,0.9,0.5
			c0.4,0,0.7-0.2,0.9-0.5c0.2-0.3,0.3-0.8,0.3-1.3V3.8z"/>
		<path class="st0" d="M205.7,6.7h-1.2L202.3,3v3.7h-1.2V1.1h1.2l2.3,3.7V1.1h1.2V6.7z"/>
		<path class="st0" d="M123.5,13.6l-0.6,0.7v1.6h-1.2v-5.7h1.2v2.6l0.5-0.7l1.4-1.9h1.4l-2,2.5l2.1,3.1h-1.4L123.5,13.6z"/>
		<path class="st0" d="M131.3,15.8h-1.2l-2.3-3.7v3.7h-1.2v-5.7h1.2l2.3,3.7v-3.7h1.2V15.8z"/>
		<path class="st0" d="M137,13.1c0,0.6-0.1,1-0.3,1.5c-0.2,0.4-0.5,0.7-0.8,1c-0.4,0.2-0.8,0.3-1.3,0.3c-0.5,0-0.9-0.1-1.3-0.3
			c-0.4-0.2-0.7-0.5-0.9-1c-0.2-0.4-0.3-0.9-0.3-1.4v-0.3c0-0.6,0.1-1,0.3-1.5c0.2-0.4,0.5-0.7,0.9-1c0.4-0.2,0.8-0.3,1.3-0.3
			c0.5,0,0.9,0.1,1.3,0.3c0.4,0.2,0.6,0.6,0.9,1c0.2,0.4,0.3,0.9,0.3,1.5V13.1z M135.8,12.9c0-0.6-0.1-1-0.3-1.4
			c-0.2-0.3-0.5-0.5-0.9-0.5c-0.4,0-0.7,0.2-0.9,0.5c-0.2,0.3-0.3,0.7-0.3,1.3v0.3c0,0.6,0.1,1,0.3,1.3c0.2,0.3,0.5,0.5,0.9,0.5
			c0.4,0,0.7-0.2,0.9-0.5c0.2-0.3,0.3-0.8,0.3-1.3V12.9z"/>
		<path class="st0" d="M142.3,14.2l0.8-4h1.2l-1.3,5.7h-1.2l-0.9-3.8l-0.9,3.8h-1.2l-1.3-5.7h1.2l0.8,4l0.9-4h1L142.3,14.2z"/>
		<path class="st0" d="M146,14.9h2.5v0.9h-3.6v-5.7h1.2V14.9z"/>
		<path class="st0" d="M152.5,13.4h-2.2v1.5h2.6v0.9h-3.8v-5.7h3.8v0.9h-2.6v1.3h2.2V13.4z"/>
		<path class="st0" d="M153.6,15.8v-5.7h1.7c0.5,0,0.9,0.1,1.3,0.3c0.4,0.2,0.7,0.5,0.9,1c0.2,0.4,0.3,0.9,0.3,1.4v0.3
			c0,0.5-0.1,1-0.3,1.4c-0.2,0.4-0.5,0.7-0.9,1c-0.4,0.2-0.8,0.3-1.3,0.3H153.6z M154.8,11.1v3.8h0.6c0.5,0,0.8-0.1,1-0.4
			c0.2-0.3,0.4-0.7,0.4-1.3v-0.3c0-0.6-0.1-1-0.4-1.3c-0.2-0.3-0.6-0.4-1-0.4H154.8z"/>
		<path class="st0" d="M163.2,15.1c-0.2,0.3-0.5,0.4-0.9,0.6c-0.4,0.1-0.8,0.2-1.3,0.2c-0.5,0-0.9-0.1-1.3-0.3
			c-0.4-0.2-0.7-0.5-0.9-0.9c-0.2-0.4-0.3-0.9-0.3-1.4v-0.4c0-0.6,0.1-1.1,0.3-1.5c0.2-0.4,0.5-0.7,0.8-0.9c0.4-0.2,0.8-0.3,1.3-0.3
			c0.7,0,1.2,0.2,1.6,0.5c0.4,0.3,0.6,0.8,0.7,1.4h-1.1c-0.1-0.3-0.2-0.6-0.3-0.7c-0.2-0.2-0.4-0.2-0.7-0.2c-0.4,0-0.7,0.1-0.9,0.4
			c-0.2,0.3-0.3,0.7-0.3,1.3v0.4c0,0.6,0.1,1,0.3,1.3c0.2,0.3,0.6,0.5,1,0.5c0.4,0,0.7-0.1,0.9-0.3v-1H161v-0.9h2.2V15.1z"/>
		<path class="st0" d="M167.6,13.4h-2.2v1.5h2.6v0.9h-3.8v-5.7h3.8v0.9h-2.6v1.3h2.2V13.4z"/>
		<path class="st0" d="M174,13.5h-2.2v2.3h-1.2v-5.7h3.7v0.9h-2.5v1.5h2.2V13.5z"/>
		<path class="st0" d="M179.6,13.1c0,0.6-0.1,1-0.3,1.5c-0.2,0.4-0.5,0.7-0.8,1c-0.4,0.2-0.8,0.3-1.3,0.3c-0.5,0-0.9-0.1-1.3-0.3
			c-0.4-0.2-0.7-0.5-0.9-1c-0.2-0.4-0.3-0.9-0.3-1.4v-0.3c0-0.6,0.1-1,0.3-1.5c0.2-0.4,0.5-0.7,0.9-1c0.4-0.2,0.8-0.3,1.3-0.3
			c0.5,0,0.9,0.1,1.3,0.3c0.4,0.2,0.6,0.6,0.9,1c0.2,0.4,0.3,0.9,0.3,1.5V13.1z M178.4,12.9c0-0.6-0.1-1-0.3-1.4
			c-0.2-0.3-0.5-0.5-0.9-0.5c-0.4,0-0.7,0.2-0.9,0.5c-0.2,0.3-0.3,0.7-0.3,1.3v0.3c0,0.6,0.1,1,0.3,1.3c0.2,0.3,0.5,0.5,0.9,0.5
			c0.4,0,0.7-0.2,0.9-0.5s0.3-0.8,0.3-1.3V12.9z"/>
		<path class="st0" d="M182.6,13.8h-0.9v2.1h-1.2v-5.7h2.1c0.7,0,1.2,0.1,1.5,0.4c0.4,0.3,0.5,0.7,0.5,1.3c0,0.4-0.1,0.7-0.3,1
			c-0.2,0.3-0.4,0.5-0.8,0.6l1.2,2.3v0.1h-1.3L182.6,13.8z M181.6,12.8h0.9c0.3,0,0.5-0.1,0.7-0.2c0.2-0.1,0.2-0.4,0.2-0.6
			c0-0.3-0.1-0.5-0.2-0.6c-0.2-0.2-0.4-0.2-0.7-0.2h-0.9V12.8z"/>
		<path class="st0" d="M124.9,23.8h-2l-0.4,1.2h-1.2l2.1-5.7h1.1l2.1,5.7h-1.2L124.9,23.8z M123.2,22.9h1.4l-0.7-2.1L123.2,22.9z"/>
		<path class="st0" d="M133.5,23.1c0,0.6-0.3,1.1-0.7,1.4c-0.4,0.3-0.9,0.5-1.6,0.5c-0.7,0-1.3-0.2-1.7-0.7c-0.4-0.5-0.6-1.2-0.6-2
			v-0.3c0-0.5,0.1-1,0.3-1.4c0.2-0.4,0.5-0.7,0.8-1c0.4-0.2,0.8-0.3,1.2-0.3c0.7,0,1.2,0.2,1.6,0.5c0.4,0.3,0.6,0.8,0.7,1.5h-1.2
			c0-0.4-0.1-0.6-0.3-0.8c-0.2-0.2-0.4-0.2-0.8-0.2c-0.4,0-0.7,0.1-0.9,0.4c-0.2,0.3-0.3,0.7-0.3,1.3v0.4c0,0.6,0.1,1.1,0.3,1.3
			c0.2,0.3,0.5,0.4,0.9,0.4c0.4,0,0.6-0.1,0.8-0.2c0.2-0.2,0.3-0.4,0.3-0.8H133.5z"/>
		<path class="st0" d="M135.4,24h2.5V25h-3.6v-5.7h1.2V24z"/>
		<path class="st0" d="M139.8,25h-1.2v-5.7h1.2V25z"/>
		<path class="st0" d="M142.4,19.3l1.5,4.1l1.4-4.1h1.5V25h-1.2v-1.5l0.1-2.7l-1.5,4.2h-0.8l-1.5-4.2l0.1,2.7V25h-1.2v-5.7H142.4z"
			/>
		<path class="st0" d="M151,23.8h-2l-0.4,1.2h-1.2l2.1-5.7h1.1l2.1,5.7h-1.2L151,23.8z M149.3,22.9h1.4l-0.7-2.1L149.3,22.9z"/>
		<path class="st0" d="M157,20.2h-1.7V25h-1.2v-4.7h-1.7v-0.9h4.6V20.2z"/>
		<path class="st0" d="M161,22.5h-2.2V24h2.6V25h-3.8v-5.7h3.8v0.9h-2.6v1.3h2.2V22.5z"/>
		<path class="st0" d="M164.2,23H162v-0.9h2.2V23z"/>
		<path class="st0" d="M167.3,22.9h-0.9V25h-1.2v-5.7h2.1c0.7,0,1.2,0.1,1.5,0.4c0.4,0.3,0.5,0.7,0.5,1.3c0,0.4-0.1,0.7-0.3,1
			c-0.2,0.3-0.4,0.5-0.8,0.6l1.2,2.3V25h-1.3L167.3,22.9z M166.3,21.9h0.9c0.3,0,0.5-0.1,0.7-0.2c0.2-0.1,0.2-0.4,0.2-0.6
			c0-0.3-0.1-0.5-0.2-0.6c-0.2-0.2-0.4-0.2-0.7-0.2h-0.9V21.9z"/>
		<path class="st0" d="M173.7,22.5h-2.2V24h2.6V25h-3.8v-5.7h3.8v0.9h-2.6v1.3h2.2V22.5z"/>
		<path class="st0" d="M177.7,23.5c0-0.2-0.1-0.4-0.2-0.5c-0.2-0.1-0.4-0.2-0.8-0.4c-0.4-0.1-0.7-0.3-1-0.4c-0.6-0.3-1-0.8-1-1.4
			c0-0.3,0.1-0.6,0.3-0.8c0.2-0.2,0.4-0.4,0.7-0.6c0.3-0.1,0.7-0.2,1.1-0.2c0.4,0,0.8,0.1,1.1,0.2c0.3,0.1,0.6,0.4,0.7,0.6
			c0.2,0.3,0.3,0.6,0.3,0.9h-1.2c0-0.3-0.1-0.5-0.2-0.6c-0.2-0.1-0.4-0.2-0.7-0.2c-0.3,0-0.5,0.1-0.7,0.2c-0.2,0.1-0.2,0.3-0.2,0.5
			c0,0.2,0.1,0.3,0.3,0.5c0.2,0.1,0.5,0.2,0.8,0.3c0.7,0.2,1.1,0.4,1.4,0.7c0.3,0.3,0.5,0.7,0.5,1.1c0,0.5-0.2,0.9-0.6,1.2
			c-0.4,0.3-0.9,0.4-1.5,0.4c-0.4,0-0.8-0.1-1.2-0.2c-0.4-0.2-0.6-0.4-0.8-0.7c-0.2-0.3-0.3-0.6-0.3-1h1.2c0,0.6,0.4,0.9,1.1,0.9
			c0.3,0,0.5-0.1,0.6-0.2C177.6,23.8,177.7,23.7,177.7,23.5z"/>
		<path class="st0" d="M180.9,25h-1.2v-5.7h1.2V25z"/>
		<path class="st0" d="M183.1,24h2.5V25h-3.6v-5.7h1.2V24z"/>
		<path class="st0" d="M187.5,25h-1.2v-5.7h1.2V25z"/>
		<path class="st0" d="M192,22.5h-2.2V24h2.6V25h-3.8v-5.7h3.8v0.9h-2.6v1.3h2.2V22.5z"/>
		<path class="st0" d="M197.6,25h-1.2l-2.3-3.7V25H193v-5.7h1.2l2.3,3.7v-3.7h1.2V25z"/>
		<path class="st0" d="M202.9,20.2h-1.7V25H200v-4.7h-1.7v-0.9h4.6V20.2z"/>
		<path class="st0" d="M125.1,31.6h-2.2v1.5h2.6v0.9h-3.8v-5.7h3.8v0.9h-2.6v1.3h2.2V31.6z"/>
		<path class="st0" d="M130.5,28.4v3.7c0,0.6-0.2,1.1-0.6,1.5c-0.4,0.4-0.9,0.5-1.6,0.5c-0.7,0-1.2-0.2-1.6-0.5
			c-0.4-0.3-0.6-0.8-0.6-1.4v-3.8h1.2v3.7c0,0.4,0.1,0.6,0.3,0.8c0.2,0.2,0.4,0.3,0.7,0.3c0.7,0,1-0.3,1-1v-3.8H130.5z"/>
		<path class="st0" d="M133.5,32h-0.9v2.1h-1.2v-5.7h2.1c0.7,0,1.2,0.1,1.5,0.4c0.4,0.3,0.5,0.7,0.5,1.3c0,0.4-0.1,0.7-0.3,1
			c-0.2,0.3-0.4,0.5-0.8,0.6l1.2,2.3v0.1h-1.3L133.5,32z M132.6,31.1h0.9c0.3,0,0.5-0.1,0.7-0.2c0.2-0.1,0.2-0.4,0.2-0.6
			c0-0.3-0.1-0.5-0.2-0.6s-0.4-0.2-0.7-0.2h-0.9V31.1z"/>
		<path class="st0" d="M141.1,31.4c0,0.6-0.1,1-0.3,1.5c-0.2,0.4-0.5,0.7-0.8,1c-0.4,0.2-0.8,0.3-1.3,0.3c-0.5,0-0.9-0.1-1.3-0.3
			c-0.4-0.2-0.7-0.5-0.9-1c-0.2-0.4-0.3-0.9-0.3-1.4v-0.3c0-0.6,0.1-1,0.3-1.5c0.2-0.4,0.5-0.7,0.9-1c0.4-0.2,0.8-0.3,1.3-0.3
			c0.5,0,0.9,0.1,1.3,0.3c0.4,0.2,0.6,0.6,0.9,1c0.2,0.4,0.3,0.9,0.3,1.5V31.4z M139.9,31.1c0-0.6-0.1-1-0.3-1.4
			c-0.2-0.3-0.5-0.5-0.9-0.5c-0.4,0-0.7,0.2-0.9,0.5c-0.2,0.3-0.3,0.7-0.3,1.3v0.3c0,0.6,0.1,1,0.3,1.3c0.2,0.3,0.5,0.5,0.9,0.5
			c0.4,0,0.7-0.2,0.9-0.5c0.2-0.3,0.3-0.8,0.3-1.3V31.1z"/>
		<path class="st0" d="M143.1,32.1v2H142v-5.7h2.2c0.4,0,0.8,0.1,1.1,0.2s0.6,0.4,0.7,0.7c0.2,0.3,0.3,0.6,0.3,1
			c0,0.6-0.2,1-0.6,1.3c-0.4,0.3-0.9,0.5-1.6,0.5H143.1z M143.1,31.1h1c0.3,0,0.5-0.1,0.7-0.2c0.2-0.1,0.2-0.4,0.2-0.6
			c0-0.3-0.1-0.5-0.2-0.7c-0.2-0.2-0.4-0.3-0.7-0.3h-1.1V31.1z"/>
		<path class="st0" d="M150.5,31.6h-2.2v1.5h2.6v0.9h-3.8v-5.7h3.8v0.9h-2.6v1.3h2.2V31.6z"/>
	</g>
	<g>
		
			<linearGradient id="SVGID_1_" gradientUnits="userSpaceOnUse" x1="-9.3347" y1="114.2806" x2="7.9797" y2="114.2806" gradientTransform="matrix(0.9998 -2.141162e-02 2.141162e-02 0.9998 12.5711 -105.5454)">
			<stop  offset="0" style="stop-color:#68ACA2"/>
			<stop  offset="1" style="stop-color:#4A9287"/>
		</linearGradient>
		<path class="st1" d="M15.8,8.2L15.8,8.2L15.8,8.2c-0.2-0.2-0.4-0.4-0.5-0.7c-1.4-2.6-4.5-5-9.7-3.9c3,1.1,1.3,5.3,5.9,7
			c0.8,0.3,1.5,0.8,2.1,1.3l1.2,1.1c2.1,2,4.5,1.1,5.8-0.3l2.3-2.5C19.6,12.6,15.8,8.2,15.8,8.2z"/>
		<path class="st2" d="M15.8,8.2c1.7,1.6,1.9,1.6,3.6-0.1l4.3-4.6c2,1.8,3.2,2.7,1.1,4.9L23,10.3C19.6,12.6,15.8,8.2,15.8,8.2z"/>
		<path class="st2" d="M19.4,4.5c1-1.1,1-2.8-0.1-3.8c-1.1-1-2.8-1-3.8,0.1c-1,1.1-1,2.8,0.1,3.8C16.7,5.6,18.4,5.6,19.4,4.5z"/>
		<g>
			<path class="st3" d="M14.6,10.7c-0.6-1.3-1.5-2.5-2.5-3.5c-1.3-1.4-2.7-2.4-4.9-3.1l0,0c3,1.3,4.4,2.7,6.2,5.1L14.6,10.7
				L14.6,10.7z"/>
			<line class="st3" x1="13.3" y1="6.7" x2="13.3" y2="6.7"/>
		</g>
	</g>
	<g>
		
			<linearGradient id="SVGID_00000099651853801439593270000009162195687036646301_" gradientUnits="userSpaceOnUse" x1="-4.1983" y1="131.1247" x2="13.1161" y2="131.1247" gradientTransform="matrix(0.9998 -2.141162e-02 2.141162e-02 0.9998 12.5711 -105.5454)">
			<stop  offset="0" style="stop-color:#68ACA2"/>
			<stop  offset="1" style="stop-color:#4A9287"/>
		</linearGradient>
		<path style="fill-rule:evenodd;clip-rule:evenodd;fill:url(#SVGID_00000099651853801439593270000009162195687036646301_);" d="
			M18.4,26L18.4,26L18.4,26c0.2,0.2,0.4,0.4,0.5,0.7c1.4,2.6,4.5,5,9.7,3.9c-3-1.1-1.3-5.3-5.9-7c-0.8-0.3-1.5-0.8-2.1-1.3l-1.2-1.1
			c-2.1-2-4.5-1.1-5.8,0.3l-2.3,2.5C14.6,21.6,18.4,26,18.4,26z"/>
		
			<linearGradient id="SVGID_00000085248305237230361540000011166907915524265600_" gradientUnits="userSpaceOnUse" x1="-9856.4629" y1="-1230.1086" x2="-9849.3242" y2="-1237.2477" gradientTransform="matrix(-0.9998 2.141162e-02 -2.141162e-02 -0.9998 -9864.999 -994.6747)">
			<stop  offset="5.154640e-03" style="stop-color:#18304F"/>
			<stop  offset="1" style="stop-color:#2F6BAF"/>
		</linearGradient>
		<path style="fill-rule:evenodd;clip-rule:evenodd;fill:url(#SVGID_00000085248305237230361540000011166907915524265600_);" d="
			M18.4,26c-1.7-1.6-1.9-1.6-3.6,0.1l-4.3,4.6c-2-1.8-3.2-2.7-1.1-4.9l1.8-1.9C14.6,21.6,18.4,26,18.4,26z"/>
		<path class="st2" d="M14.8,29.7c-1,1.1-1,2.8,0.1,3.8c1.1,1,2.8,1,3.8-0.1c1-1.1,1-2.8-0.1-3.8C17.5,28.5,15.8,28.6,14.8,29.7z"/>
		<g>
			<path class="st3" d="M19.5,23.4c0.6,1.3,1.5,2.5,2.5,3.5c1.3,1.4,2.7,2.4,4.9,3.1l0,0c-3-1.3-4.4-2.7-6.2-5.1L19.5,23.4
				L19.5,23.4z"/>
			<line class="st3" x1="20.9" y1="27.5" x2="20.9" y2="27.5"/>
		</g>
	</g>
	<g>
		
			<linearGradient id="SVGID_00000039843924412303729850000001200730030714720392_" gradientUnits="userSpaceOnUse" x1="-4171.2041" y1="-5572.6338" x2="-4153.8901" y2="-5572.6338" gradientTransform="matrix(2.141162e-02 0.9998 -0.9998 2.141162e-02 -5456.7754 4295.2524)">
			<stop  offset="0" style="stop-color:#68ACA2"/>
			<stop  offset="1" style="stop-color:#4A9287"/>
		</linearGradient>
		<path style="fill-rule:evenodd;clip-rule:evenodd;fill:url(#SVGID_00000039843924412303729850000001200730030714720392_);" d="
			M26,15.8L26,15.8L26,15.8c0.2-0.2,0.4-0.4,0.7-0.5c2.6-1.4,5-4.5,3.9-9.7c-1.1,3-5.3,1.3-7,5.9c-0.3,0.8-0.8,1.5-1.3,2.1l-1.1,1.2
			c-2,2.1-1.1,4.5,0.3,5.8l2.5,2.3C21.6,19.6,26,15.8,26,15.8z"/>
		<path class="st2" d="M26,15.8c-1.6,1.7-1.6,1.9,0.1,3.6l4.6,4.3c-1.8,2-2.7,3.2-4.9,1.1L23.9,23C21.6,19.6,26,15.8,26,15.8z"/>
		<path class="st2" d="M29.7,19.4c1.1,1,2.8,1,3.8-0.1c1-1.1,1-2.8-0.1-3.8c-1.1-1-2.8-1-3.8,0.1C28.5,16.7,28.6,18.4,29.7,19.4z"/>
		<g>
			<path class="st3" d="M23.4,14.6c1.3-0.6,2.5-1.5,3.5-2.5c1.4-1.3,2.4-2.7,3.1-4.9l0,0c-1.3,3-2.7,4.4-5.1,6.2L23.4,14.6
				L23.4,14.6z"/>
			<line class="st3" x1="27.5" y1="13.3" x2="27.5" y2="13.3"/>
		</g>
	</g>
	<g>
		
			<linearGradient id="SVGID_00000156547888875951700950000014469192736794511514_" gradientUnits="userSpaceOnUse" x1="-4166.0679" y1="-5555.7896" x2="-4148.7534" y2="-5555.7896" gradientTransform="matrix(2.141162e-02 0.9998 -0.9998 2.141162e-02 -5456.7754 4295.2524)">
			<stop  offset="0" style="stop-color:#68ACA2"/>
			<stop  offset="1" style="stop-color:#4A9287"/>
		</linearGradient>
		<path style="fill-rule:evenodd;clip-rule:evenodd;fill:url(#SVGID_00000156547888875951700950000014469192736794511514_);" d="
			M8.2,18.4L8.2,18.4L8.2,18.4c-0.2,0.2-0.4,0.4-0.7,0.5c-2.6,1.4-5,4.5-3.9,9.7c1.1-3,5.3-1.3,7-5.9c0.3-0.8,0.8-1.5,1.3-2.1
			l1.1-1.2c2-2.1,1.1-4.5-0.3-5.8l-2.5-2.3C12.6,14.6,8.2,18.4,8.2,18.4z"/>
		<path class="st2" d="M8.2,18.4c1.6-1.7,1.6-1.9-0.1-3.6l-4.6-4.3c1.8-2,2.7-3.2,4.9-1.1l1.9,1.8C12.6,14.6,8.2,18.4,8.2,18.4z"/>
		<path class="st2" d="M4.5,14.8c-1.1-1-2.8-1-3.8,0.1c-1,1.1-1,2.8,0.1,3.8c1.1,1,2.8,1,3.8-0.1C5.6,17.5,5.6,15.8,4.5,14.8z"/>
		<g>
			<path class="st3" d="M10.7,19.5C9.4,20.2,8.2,21,7.2,22c-1.4,1.3-2.4,2.7-3.1,4.9l0,0c1.3-3,2.7-4.4,5.1-6.2L10.7,19.5L10.7,19.5
				z"/>
			<line class="st3" x1="6.7" y1="20.9" x2="6.7" y2="20.9"/>
		</g>
	</g>
</g>
</svg>
